<svg fill="black" viewBox="0 0 32 32" xmlns="http://www.w3.org/2000/svg">
  <circle cx="16" cy="16" r="16" fill="transparent" />
  <path
    d="M15.392,24.804c0.35,0.254 0.824,0.254 1.174,-0c-0,-0 3.007,-2.178 5.412,-5.403c1.665,-2.233 3.021,-4.961 3.021,-7.811c0,-5.315 -3.463,-9.596 -9.02,-9.596c-5.557,0 -9.021,4.281 -9.021,9.596c0,2.85 1.357,5.578 3.022,7.811c2.405,3.225 5.412,5.403 5.412,5.403Zm0.587,-2.076c-0.932,-0.754 -2.806,-2.391 -4.396,-4.523c-1.415,-1.897 -2.625,-4.193 -2.625,-6.615c0,-4.174 2.657,-7.596 7.021,-7.596c4.364,0 7.02,3.422 7.02,7.596c0,2.422 -1.209,4.718 -2.624,6.615c-1.59,2.132 -3.464,3.769 -4.396,4.523l-0,-0Z" />
  <path
    d="M22.502,23.412c0.803,0.46 1.382,0.955 1.382,1.582c-0,0.591 -0.525,1.064 -1.254,1.507c-1.518,0.921 -3.973,1.493 -6.734,1.493c-2.761,0 -5.216,-0.572 -6.733,-1.493c-0.73,-0.443 -1.254,-0.916 -1.254,-1.507c-0,-0.266 0.128,-0.512 0.325,-0.747c0.288,-0.347 0.713,-0.656 1.235,-0.934c0.487,-0.259 0.673,-0.865 0.413,-1.352c-0.259,-0.488 -0.865,-0.673 -1.352,-0.413c-1.708,0.909 -2.621,2.17 -2.621,3.446c-0,1.177 0.762,2.334 2.216,3.217c1.754,1.065 4.58,1.783 7.771,1.783c3.192,0 6.017,-0.718 7.771,-1.783c1.454,-0.883 2.217,-2.04 2.217,-3.217c-0,-1.22 -0.826,-2.422 -2.387,-3.317c-0.479,-0.274 -1.091,-0.109 -1.365,0.37c-0.275,0.479 -0.109,1.091 0.37,1.365Z" />
  <path
    d="M14.999,9.994l-2,0c-0.551,0 -1,0.448 -1,1c0,0.552 0.449,1 1,1l2,0l-0.001,2c-0,0.552 0.448,1 1,1c0.552,0 1,-0.448 1,-1l0.001,-2l2,0c0.552,0 1,-0.448 1,-1c0,-0.552 -0.448,-1 -1,-1l-2,0l0,-2c0.001,-0.551 -0.447,-1 -0.999,-1c-0.552,0 -1,0.448 -1.001,1l0,2Z" />

  <style>
    @media (prefers-color-scheme: dark) {
      circle {
        fill: #fff9;
      }
    }
  </style>
</svg>
