<svg xmlns="http://www.w3.org/2000/svg" viewBox="0 0 22 28" fill="#a52a2a">
  <path
    d="M6 20.5v1c0 0.266-0.234 0.5-0.5 0.5h-1c-0.266 0-0.5-0.234-0.5-0.5v-1c0-0.266 0.234-0.5 0.5-0.5h1c0.266 0 0.5 0.234 0.5 0.5zM6 16.5v1c0 0.266-0.234 0.5-0.5 0.5h-1c-0.266 0-0.5-0.234-0.5-0.5v-1c0-0.266 0.234-0.5 0.5-0.5h1c0.266 0 0.5 0.234 0.5 0.5zM10 16.5v1c0 0.266-0.234 0.5-0.5 0.5h-1c-0.266 0-0.5-0.234-0.5-0.5v-1c0-0.266 0.234-0.5 0.5-0.5h1c0.266 0 0.5 0.234 0.5 0.5zM6 12.5v1c0 0.266-0.234 0.5-0.5 0.5h-1c-0.266 0-0.5-0.234-0.5-0.5v-1c0-0.266 0.234-0.5 0.5-0.5h1c0.266 0 0.5 0.234 0.5 0.5zM18 20.5v1c0 0.266-0.234 0.5-0.5 0.5h-1c-0.266 0-0.5-0.234-0.5-0.5v-1c0-0.266 0.234-0.5 0.5-0.5h1c0.266 0 0.5 0.234 0.5 0.5zM14 16.5v1c0 0.266-0.234 0.5-0.5 0.5h-1c-0.266 0-0.5-0.234-0.5-0.5v-1c0-0.266 0.234-0.5 0.5-0.5h1c0.266 0 0.5 0.234 0.5 0.5zM10 12.5v1c0 0.266-0.234 0.5-0.5 0.5h-1c-0.266 0-0.5-0.234-0.5-0.5v-1c0-0.266 0.234-0.5 0.5-0.5h1c0.266 0 0.5 0.234 0.5 0.5zM18 16.5v1c0 0.266-0.234 0.5-0.5 0.5h-1c-0.266 0-0.5-0.234-0.5-0.5v-1c0-0.266 0.234-0.5 0.5-0.5h1c0.266 0 0.5 0.234 0.5 0.5zM14 12.5v1c0 0.266-0.234 0.5-0.5 0.5h-1c-0.266 0-0.5-0.234-0.5-0.5v-1c0-0.266 0.234-0.5 0.5-0.5h1c0.266 0 0.5 0.234 0.5 0.5zM18 12.5v1c0 0.266-0.234 0.5-0.5 0.5h-1c-0.266 0-0.5-0.234-0.5-0.5v-1c0-0.266 0.234-0.5 0.5-0.5h1c0.266 0 0.5 0.234 0.5 0.5zM14 26h6v-18h-4v0.5c0 0.828-0.672 1.5-1.5 1.5h-7c-0.828 0-1.5-0.672-1.5-1.5v-0.5h-4v18h6v-3.5c0-0.266 0.234-0.5 0.5-0.5h5c0.266 0 0.5 0.234 0.5 0.5v3.5zM14 7.5v-5c0-0.266-0.234-0.5-0.5-0.5h-1c-0.266 0-0.5 0.234-0.5 0.5v1.5h-2v-1.5c0-0.266-0.234-0.5-0.5-0.5h-1c-0.266 0-0.5 0.234-0.5 0.5v5c0 0.266 0.234 0.5 0.5 0.5h1c0.266 0 0.5-0.234 0.5-0.5v-1.5h2v1.5c0 0.266 0.234 0.5 0.5 0.5h1c0.266 0 0.5-0.234 0.5-0.5zM22 7v20c0 0.547-0.453 1-1 1h-20c-0.547 0-1-0.453-1-1v-20c0-0.547 0.453-1 1-1h5v-4.5c0-0.828 0.672-1.5 1.5-1.5h7c0.828 0 1.5 0.672 1.5 1.5v4.5h5c0.547 0 1 0.453 1 1z" />
</svg>
