<svg id="_001-medical-professional" data-name="001-medical-professional" xmlns="http://www.w3.org/2000/svg" width="61.865" height="61.865" viewBox="0 0 61.865 61.865">
  <g id="Group_388" data-name="Group 388" transform="translate(0 0)">
    <path id="Path_403" data-name="Path 403" d="M340.535,257.946a2.58,2.58,0,0,0-2.348,4.6,25.967,25.967,0,0,1,14.179,23.269,2.576,2.576,0,0,0,5.151,0A31.117,31.117,0,0,0,340.535,257.946Z" transform="translate(-295.651 -226.521)" fill="#16bbe5"/>
    <path id="Path_404" data-name="Path 404" d="M27.7,258.984A31.185,31.185,0,0,0,11,286.71a2.576,2.576,0,1,0,5.151,0A26.042,26.042,0,0,1,30.09,263.555a2.578,2.578,0,0,0-2.386-4.57Z" transform="translate(-11 -227.421)" fill="#16bbe5"/>
    <path id="Path_405" data-name="Path 405" d="M143.549,43.776A16.389,16.389,0,1,0,127.3,27.388,16.332,16.332,0,0,0,143.549,43.776Zm0-27.625a11.238,11.238,0,1,1-11.1,11.237A11.176,11.176,0,0,1,143.549,16.151Z" transform="translate(-112.616 -11)" fill="#16bbe5"/>
    <path id="Path_406" data-name="Path 406" d="M203.307,285.521a2.575,2.575,0,0,0-2.538-2.121h-5.783a2.574,2.574,0,0,0-2.538,2.121l-2.929,16.35a2.583,2.583,0,0,0,1.389,2.765l5.921,2.929a2.174,2.174,0,0,0,2.323-.013l5.707-2.929a2.575,2.575,0,0,0,1.364-2.752Zm-5.341,16.843-3.018-1.49,2.209-12.323h1.465l2.209,12.348Z" transform="translate(-166.945 -249.008)" fill="#16bbe5"/>
  </g>
</svg>
