<?xml version="1.0" encoding="utf-8"?>
<!-- Generator: Adobe Illustrator 24.0.1, SVG Export Plug-In . SVG Version: 6.00 Build 0)  -->
<svg version="1.1" id="revisi" xmlns="http://www.w3.org/2000/svg" xmlns:xlink="http://www.w3.org/1999/xlink" x="0px" y="0px"
	 viewBox="0 0 610 400" style="enable-background:new 0 0 610 400;" xml:space="preserve">
<style type="text/css">
	.st0{fill:#FEF0AB;}
	.st1{fill:#FFF5CD;}
	.st2{clip-path:url(#SVGID_2_);}
	.st3{opacity:0.1;}
	.st4{fill:#726D95;}
	.st5{fill:#B1E2EA;}
	.st6{fill:#92C71B;}
	.st7{fill:#565981;}
	.st8{fill:#B3C3DE;}
	.st9{fill:#FFFFFF;}
	.st10{opacity:0.2;}
	.st11{clip-path:url(#SVGID_4_);fill:#726D95;}
	.st12{clip-path:url(#SVGID_4_);}
	.st13{fill:#F5F1C3;}
	.st14{fill:#D8D4A8;}
	.st15{fill:#5752A4;}
	.st16{fill:#80C41C;}
	.st17{fill:#A79C90;}
	.st18{fill:#F63949;}
	.st19{fill:#F2F2F2;}
	.st20{fill:#F51620;}
	.st21{fill:#AD5620;}
	.st22{fill:#8A4A26;}
	.st23{fill:#89CCC5;}
	.st24{fill:#F1E1D0;}
	.st25{fill:#ED6876;}
	.st26{fill:#49281C;}
	.st27{fill:#282223;}
	.st28{fill:#ECD51A;}
	.st29{fill:#333333;}
	.st30{fill:#F73A42;}
	.st31{fill:#F5ADA2;}
	.st32{fill:#A0642F;}
	.st33{fill:#4569AF;}
	.st34{fill:#867D77;}
	.st35{fill:#4E4545;}
	.st36{fill:#644A09;}
	.st37{fill:#593011;}
	.st38{fill:#B3D246;}
	.st39{fill:#D4EBE7;}
	.st40{fill:#EEF9FA;}
	.st41{fill:#75CBDE;}
	.st42{fill:#C2E8F0;}
	.st43{fill:#81C31F;}
	.st44{fill:#B4DE5A;}
	.st45{fill:#F53A4A;}
	.st46{fill:#FD5F2D;}
	.st47{fill:#93562E;}
	.st48{fill:#FEDFBC;}
	.st49{fill:#C2C934;}
	.st50{opacity:0.1;fill:#070606;}
	.st51{fill:#381E0C;}
	.st52{fill:#322A2B;}
	.st53{fill:#4D260B;}
	.st54{fill:#070606;}
	.st55{fill:#1A1A1A;}
	.st56{clip-path:url(#SVGID_6_);}
	.st57{fill:#BFB9B6;}
	.st58{fill:#F6BF2A;}
	.st59{fill:#DF9023;}
	.st60{fill:#F59E27;}
	.st61{fill:#F4A83A;}
	.st62{fill:#83CFEC;}
	.st63{fill:#FFD03C;}
	.st64{opacity:0.1;fill:#182825;}
	.st65{fill:#06BEE1;}
	.st66{fill:#49DC98;}
	.st67{fill:#016FB9;}
	.st68{fill:#CCCCCC;}
	.st69{clip-path:url(#SVGID_8_);fill:#85FFC7;}
	.st70{fill:#E72D41;}
	.st71{fill:#85FFC7;}
	.st72{clip-path:url(#SVGID_10_);}
	.st73{fill:#E5E5E5;}
	.st74{clip-path:url(#SVGID_12_);fill:#034387;}
	.st75{clip-path:url(#SVGID_14_);fill:#06BEE1;}
	.st76{clip-path:url(#SVGID_16_);fill:#85FFC7;}
	.st77{clip-path:url(#SVGID_18_);fill:#49DC98;}
	.st78{clip-path:url(#SVGID_20_);fill:#182825;}
	.st79{clip-path:url(#SVGID_22_);fill:#202020;}
	.st80{clip-path:url(#SVGID_24_);fill:#016FB9;}
	.st81{fill:none;stroke:#282D33;stroke-width:4;}
	.st82{fill:none;stroke:#85FFC7;stroke-width:3;}
	.st83{fill:none;stroke:#FFFFFF;stroke-width:3;}
	.st84{fill:#F7B75D;}
	.st85{fill:#034387;}
	.st86{fill:#B9B8F1;}
	.st87{fill-rule:evenodd;clip-rule:evenodd;fill:#85FFC7;}
	.st88{fill-rule:evenodd;clip-rule:evenodd;fill:#49DC98;}
	.st89{fill-rule:evenodd;clip-rule:evenodd;fill:#F7B75D;}
	.st90{fill-rule:evenodd;clip-rule:evenodd;fill:#06BEE1;}
	.st91{fill-rule:evenodd;clip-rule:evenodd;fill:#E72D41;}
	.st92{fill:#CDF2F9;}
	.st93{fill:#F99AB6;}
	.st94{fill:#121F55;}
	.st95{fill:#FFFEFF;}
	.st96{fill:#8EDEF2;}
	.st97{fill:#2747B3;}
	.st98{fill:#61C8E0;}
	.st99{fill:#2143AF;}
	.st100{fill:#202020;}
	.st101{fill:#B8B9F1;}
	.st102{fill:#566CD3;}
	.st103{fill:#E5E9FF;}
	.st104{fill:#182825;}
	.st105{fill-rule:evenodd;clip-rule:evenodd;fill:#FFFFFF;}
	.st106{fill:#F7A93E;}
</style>
<g>
	<g>
		<g>
			<g>
				<g>
					<path class="st67" d="M386.4,287.99v74.53c0,6.13,4.97,11.1,11.1,11.1h130.44c6.13,0,11.1-4.97,11.1-11.1v-74.53
						c0-6.13-4.97-11.1-11.1-11.1H397.5C391.37,276.89,386.4,281.86,386.4,287.99z"/>
				</g>
			</g>
		</g>
	</g>
	<g>
		<g>
			<g>
				<g>
					<rect x="397.02" y="284.85" class="st9" width="127.93" height="81.93"/>
				</g>
			</g>
		</g>
	</g>
	<g>
		<g id="XMLID_360_">
			<g id="XMLID_367_">
				<g id="XMLID_368_">
					<polygon class="st71" points="418.51,303.31 431.98,296.63 444.9,303.37 457.82,303.37 465.36,296.77 478.65,309.98 
						491.57,303.37 504.67,296.77 516.68,302.84 516.68,356.83 405.59,356.83 405.59,294.63 					"/>
				</g>
			</g>
			<g id="XMLID_365_">
				<g id="XMLID_366_">
					<polygon class="st84" points="418.32,317.04 431.8,303.31 447.29,318.66 466.49,310.25 478.46,324.62 491.57,309.98 
						504.86,316.79 516.68,310.81 516.68,356.83 405.59,356.83 405.59,310.25 					"/>
				</g>
			</g>
			<g id="XMLID_363_">
				<g id="XMLID_364_">
					<polygon class="st67" points="418.69,309.98 431.61,316.65 444.01,331.34 458.01,323.46 465.54,316.88 478.65,336.85 
						491.75,330.07 504.86,337.04 516.68,330.72 516.68,356.83 405.59,356.83 405.59,318 					"/>
				</g>
			</g>
			<g id="XMLID_361_">
				<g id="XMLID_362_">
					<polygon class="st85" points="418.51,333.34 431.61,323.6 444.53,336.95 457.82,330.27 465.51,341.73 487.98,344.33 
						504.67,330.14 516.68,336.28 516.68,356.83 405.59,356.83 405.59,328.84 					"/>
				</g>
			</g>
		</g>
	</g>
	<g>
		<path class="st86" d="M535.14,325.82c0,1.57-1.27,2.84-2.84,2.84c-1.57,0-2.84-1.27-2.84-2.84c0-1.57,1.27-2.84,2.84-2.84
			C533.87,322.98,535.14,324.25,535.14,325.82z"/>
	</g>
</g>
<g>
	<g>
		<g>
			<g>
				<path class="st85" d="M77.1,363.12v5.25c0,2.9,2.29,5.25,5.13,5.25h201.19c2.83,0,5.13-2.35,5.13-5.25v-5.25H77.1z"/>
			</g>
		</g>
	</g>
	<g>
		<g>
			<g>
				<path class="st67" d="M278.77,363.12v-111c0-6.17-4.89-11.18-10.92-11.18H97.81c-6.03,0-10.92,5.01-10.92,11.18v111H278.77z"/>
			</g>
		</g>
	</g>
	<g>
		<g>
			<g>
				<rect x="96.41" y="251.53" class="st9" width="172.82" height="103"/>
			</g>
		</g>
	</g>
	<g>
		<g>
			<g>
				<path class="st9" d="M185.64,246.29c0,1.59-1.26,2.89-2.82,2.89c-1.56,0-2.82-1.29-2.82-2.89c0-1.59,1.26-2.89,2.82-2.89
					C184.38,243.4,185.64,244.69,185.64,246.29z"/>
			</g>
		</g>
	</g>
	<g>
		<polygon class="st87" points="241.52,354.53 241.51,328.03 225.7,328.01 225.71,354.53 		"/>
	</g>
	<g>
		<polygon class="st88" points="221.19,354.53 221.2,318.96 205.39,318.94 205.38,354.53 		"/>
	</g>
	<g>
		<polygon class="st89" points="200.86,354.53 200.9,297.87 185.09,297.85 185.05,354.53 		"/>
	</g>
	<g>
		<rect x="164.75" y="305.43" class="st90" width="15.81" height="49.1"/>
	</g>
	<g>
		<polygon class="st87" points="160.23,354.53 160.24,326.9 144.44,326.87 144.42,354.53 		"/>
	</g>
	<g>
		<polygon class="st91" points="139.91,354.53 139.93,318.52 124.12,318.5 124.1,354.53 		"/>
	</g>
	<g>
		<polygon class="st88" points="119.59,354.53 119.61,304.81 103.81,304.79 103.78,354.53 		"/>
	</g>
	<g>
		<polygon class="st91" points="261.81,354.53 261.87,281.41 246.06,281.4 245.99,354.53 		"/>
	</g>
</g>
<g>
	<g>
		<g>
			<path class="st85" d="M407.33,106.95h13.01l-72.96-72.39v-2.59c0-4.73-4.29-8.57-9.02-8.57c-4.73,0-9.02,3.84-9.02,8.57v4.02
				l-71.48,70.96h13.01l58.47-58.02v262.72l-55.56,61.62l18.22,0.04l37.33-41.11v41.41h18.05v-41.08l36.94,40.79l18.45-0.04
				l-55.39-61.39V47.5L407.33,106.95z"/>
		</g>
		<g>
			<g>
				<g>
					<g>
						<path class="st70" d="M334.17,41.48c0,2.41,1.89,4.36,4.22,4.36c2.33,0,4.22-1.95,4.22-4.36c0-2.41-1.89-4.36-4.22-4.36
							C336.06,37.11,334.17,39.07,334.17,41.48z"/>
					</g>
				</g>
			</g>
		</g>
	</g>
	<g>
		<g>
			<rect x="189.22" y="79.6" class="st92" width="299.76" height="192.43"/>
		</g>
	</g>
	<g>
		<g>
			<g>
				
					<rect x="354.3" y="139.72" transform="matrix(-1.836970e-16 1 -1 -1.836970e-16 613.6395 -198.9261)" class="st71" width="103.96" height="135.27"/>
			</g>
		</g>
	</g>
	<g>
		<g>
			<g>
				
					<rect x="294.11" y="204.84" transform="matrix(-1.836970e-16 1 -1 -1.836970e-16 557.4993 -142.7842)" class="st9" width="112.06" height="5.04"/>
			</g>
		</g>
	</g>
	<g>
		<g>
			<g>
				
					<rect x="310.19" y="204.84" transform="matrix(-1.836970e-16 1 -1 -1.836970e-16 573.5819 -158.8668)" class="st9" width="112.06" height="5.04"/>
			</g>
		</g>
	</g>
	<g>
		<g>
			<g>
				
					<rect x="326.28" y="204.84" transform="matrix(-1.836970e-16 1 -1 -1.836970e-16 589.6646 -174.9494)" class="st9" width="112.06" height="5.04"/>
			</g>
		</g>
	</g>
	<g>
		<g>
			<g>
				
					<rect x="342.36" y="204.84" transform="matrix(-1.836970e-16 1 -1 -1.836970e-16 605.7472 -191.0321)" class="st9" width="112.06" height="5.04"/>
			</g>
		</g>
	</g>
	<g>
		<g>
			<g>
				
					<rect x="358.44" y="204.84" transform="matrix(-1.836970e-16 1 -1 -1.836970e-16 621.8298 -207.1147)" class="st9" width="112.06" height="5.04"/>
			</g>
		</g>
	</g>
	<g>
		<g>
			<g>
				
					<rect x="374.52" y="204.84" transform="matrix(-1.836970e-16 1 -1 -1.836970e-16 637.9124 -223.1973)" class="st9" width="112.06" height="5.04"/>
			</g>
		</g>
	</g>
	<g>
		<g>
			<g>
				
					<rect x="390.61" y="204.84" transform="matrix(-1.836970e-16 1 -1 -1.836970e-16 653.9946 -239.2794)" class="st9" width="112.06" height="5.04"/>
			</g>
		</g>
	</g>
	<g>
		<g>
			<g>
				
					<rect x="406.69" y="204.84" transform="matrix(-1.836970e-16 1 -1 -1.836970e-16 670.0772 -255.3621)" class="st9" width="112.06" height="5.04"/>
			</g>
		</g>
	</g>
	<g>
		<g>
			<g>
				
					<rect x="333.01" y="163.78" transform="matrix(-1 -1.224647e-16 1.224647e-16 -1 810.4843 332.6039)" class="st9" width="144.47" height="5.04"/>
			</g>
		</g>
	</g>
	<g>
		<g>
			<g>
				
					<rect x="333.01" y="180.03" transform="matrix(-1 -1.224647e-16 1.224647e-16 -1 810.4843 365.1011)" class="st9" width="144.47" height="5.04"/>
			</g>
		</g>
	</g>
	<g>
		<g>
			<g>
				
					<rect x="333.01" y="196.28" transform="matrix(-1 -1.224647e-16 1.224647e-16 -1 810.4843 397.6)" class="st9" width="144.47" height="5.04"/>
			</g>
		</g>
	</g>
	<g>
		<g>
			<g>
				
					<rect x="333.01" y="212.53" transform="matrix(-1 -1.224647e-16 1.224647e-16 -1 810.4843 430.0991)" class="st9" width="144.47" height="5.04"/>
			</g>
		</g>
	</g>
	<g>
		<g>
			<g>
				
					<rect x="333.01" y="228.78" transform="matrix(-1 -1.224647e-16 1.224647e-16 -1 810.4843 462.5982)" class="st9" width="144.47" height="5.04"/>
			</g>
		</g>
	</g>
	<g>
		<g>
			<g>
				
					<rect x="333.01" y="245.03" transform="matrix(-1 -1.224647e-16 1.224647e-16 -1 810.4843 495.0973)" class="st9" width="144.47" height="5.04"/>
			</g>
		</g>
	</g>
	<g>
		<g>
			<g>
				<g>
					<g>
						<g>
							<g>
								<g>
									<g>
										<rect x="374.7" y="116.5" class="st70" width="9.05" height="25.45"/>
									</g>
								</g>
							</g>
						</g>
					</g>
				</g>
			</g>
			<g>
				<g>
					<g>
						<g>
							<g>
								<g>
									<g>
										<rect x="392.8" y="125.18" class="st66" width="9.05" height="16.77"/>
									</g>
								</g>
							</g>
						</g>
					</g>
				</g>
			</g>
			<g>
				<g>
					<g>
						<g>
							<g>
								<g>
									<g>
										<rect x="354.65" y="129.6" class="st66" width="9.05" height="12.35"/>
									</g>
								</g>
							</g>
						</g>
					</g>
				</g>
			</g>
			<g>
				<g>
					<g>
						<g>
							<g>
								<g>
									<g>
										<rect x="429.01" y="102.01" class="st70" width="9.05" height="39.95"/>
									</g>
								</g>
							</g>
						</g>
					</g>
				</g>
			</g>
			<g>
				<g>
					<g>
						<g>
							<g>
								<g>
									<g>
										<rect x="409.95" y="117.25" class="st65" width="9.05" height="24.71"/>
									</g>
								</g>
							</g>
						</g>
					</g>
				</g>
			</g>
			<g>
				<g>
					<g>
						<g>
							<g>
								<g>
									<g>
										<rect x="447.12" y="92.54" class="st65" width="9.05" height="49.41"/>
									</g>
								</g>
							</g>
						</g>
					</g>
				</g>
			</g>
		</g>
	</g>
	<g>
		<g>
			<g>
				<g>
					<g>
						<g>
							<path class="st66" d="M261.93,138.42h40.59c-1.32,19.89-17.83,35.63-38.05,35.63c-21.08,0-38.17-17.09-38.17-38.18
								c0-20.23,15.74-36.74,35.63-38.05V138.42z"/>
						</g>
					</g>
				</g>
			</g>
			<g>
				<g>
					<g>
						<g>
							<path class="st71" d="M300.02,133.33h-24.25l21.92-10.41C298.99,126.25,299.77,129.74,300.02,133.33L300.02,133.33z"/>
						</g>
					</g>
				</g>
			</g>
		</g>
	</g>
	<g>
		<g>
			<g>
				<g>
					
						<rect x="203.17" y="167.82" transform="matrix(0.8011 -0.5985 0.5985 0.8011 -59.9416 163.0754)" class="st65" width="24.47" height="7.81"/>
				</g>
			</g>
		</g>
		<g>
			<g>
				<g>
					<path class="st85" d="M305.25,105.55c-8.19-10.96-20.19-18.11-33.72-20.05c-1.39-0.21-2.79-0.33-4.17-0.42
						c-12.03-0.73-24.01,2.85-33.75,10.14c-10.95,8.22-18.04,20.17-19.98,33.69c-1.62,11.33,0.5,22.54,6.16,32.42
						c1.04,1.86,2.23,3.67,3.52,5.4c1.34,1.78,2.8,3.49,4.34,5.1c3,3.09,6.36,5.77,10.01,8.03c5.93,3.6,12.45,5.92,19.39,6.9
						c1.35,0.2,2.76,0.35,4.14,0.44c26.38,1.61,49.98-17.63,53.7-43.82C316.86,129.92,313.42,116.49,305.25,105.55z M306.18,142.13
						c-3.11,21.68-22.62,37.58-44.45,36.24c-1.14-0.04-2.28-0.18-3.41-0.33c-10.71-1.55-20.34-7.06-27.31-15.77l-0.64-0.82
						c-6.74-9.07-9.58-20.18-7.99-31.3c1.58-11.18,7.45-21.07,16.53-27.84c8.04-6.04,17.95-9.04,27.92-8.43
						c1.14,0.07,2.31,0.2,3.45,0.35c11.19,1.61,21.09,7.5,27.91,16.61C304.91,119.86,307.76,130.97,306.18,142.13z"/>
				</g>
			</g>
		</g>
		<g>
			<g>
				<g>
					
						<rect x="153.41" y="182.44" transform="matrix(0.8012 -0.5985 0.5985 0.8012 -78.4101 150.7275)" class="st85" width="68.41" height="21.84"/>
				</g>
			</g>
		</g>
		<g>
			<g>
				<path class="st67" d="M137.42,192.07h39.32c3.1,0,5.62,2.51,5.62,5.62l0,0c0,3.1-2.51,5.62-5.62,5.62h-39.32
					c-3.1,0-5.62-2.51-5.62-5.62l0,0C131.8,194.59,134.32,192.07,137.42,192.07z"/>
			</g>
			<g>
				<path class="st67" d="M167.06,176.57h24.45c3.1,0,5.62,2.51,5.62,5.62l0,0c0,3.1-2.52,5.61-5.62,5.61h-24.45
					c-3.1,0-5.62-2.51-5.62-5.61l0,0C161.44,179.08,163.96,176.57,167.06,176.57z"/>
			</g>
			<g>
				<path class="st67" d="M166.75,214.07h-43.97c-2.35,0-4.25,1.91-4.25,4.25c0,2.35,1.9,4.25,4.25,4.25h43.97V214.07z"/>
			</g>
		</g>
	</g>
	<g>
		<g>
			<path class="st65" d="M338.45,221.09l-1.26-3.81l58.22-19.22c0.37-0.12,0.76-0.13,1.13-0.04l47.88,12.45l28.18-14.72l1.86,3.56
				l-28.87,15.07c-0.44,0.23-0.95,0.29-1.43,0.16l-48.06-12.49L338.45,221.09z"/>
		</g>
	</g>
	<g>
		<g>
			<g>
				<path class="st66" d="M450.72,213.19c0,3.2-2.59,5.79-5.79,5.79c-3.2,0-5.79-2.59-5.79-5.79c0-3.2,2.59-5.79,5.79-5.79
					C448.12,207.39,450.72,209.99,450.72,213.19z"/>
			</g>
		</g>
	</g>
	<g>
		<g>
			<g>
				<circle class="st66" cx="476.55" cy="199.22" r="6.05"/>
			</g>
		</g>
	</g>
	<g>
		<g>
			<g>
				<path class="st66" d="M401.9,202.12c0,3.2-2.59,5.79-5.79,5.79c-3.2,0-5.79-2.59-5.79-5.79c0-3.2,2.59-5.79,5.79-5.79
					C399.31,196.33,401.9,198.93,401.9,202.12z"/>
			</g>
		</g>
	</g>
	<g>
		<g>
			<g>
				<path class="st66" d="M344.82,220.88c0,3.2-2.59,5.79-5.79,5.79c-3.2,0-5.79-2.59-5.79-5.79c0-3.2,2.59-5.79,5.79-5.79
					C342.22,215.08,344.82,217.68,344.82,220.88z"/>
			</g>
		</g>
	</g>
	<g>
		<g>
			<g>
				<rect x="219.11" y="233.91" class="st67" width="42.11" height="4.01"/>
			</g>
		</g>
		<g>
			<g>
				<rect x="291.29" y="233.91" class="st67" width="28.07" height="4.01"/>
			</g>
		</g>
		<g>
			<g>
				<rect x="265.23" y="233.91" class="st67" width="20.05" height="4.01"/>
			</g>
		</g>
		<g>
			<g>
				<rect x="279.26" y="223.88" class="st67" width="40.1" height="4.01"/>
			</g>
		</g>
		<g>
			<g>
				<rect x="219.11" y="223.88" class="st67" width="30.08" height="4.01"/>
			</g>
		</g>
		<g>
			<g>
				<rect x="255.2" y="223.88" class="st67" width="18.05" height="4.01"/>
			</g>
		</g>
		<g>
			<g>
				<rect x="219.11" y="213.86" class="st67" width="42.11" height="4.01"/>
			</g>
		</g>
		<g>
			<g>
				<rect x="291.29" y="213.86" class="st67" width="28.07" height="4.01"/>
			</g>
		</g>
		<g>
			<g>
				<rect x="265.23" y="213.86" class="st67" width="20.05" height="4.01"/>
			</g>
		</g>
		<g>
			<g>
				<rect x="279.26" y="203.83" class="st67" width="40.1" height="4.01"/>
			</g>
		</g>
		<g>
			<g>
				<rect x="219.11" y="203.83" class="st67" width="30.08" height="4.01"/>
			</g>
		</g>
		<g>
			<g>
				<rect x="255.2" y="203.83" class="st67" width="18.05" height="4.01"/>
			</g>
		</g>
	</g>
</g>
<g>
	<g>
		<path class="st71" d="M465.05,66.76c-2.56,0-5.12-0.9-7.07-2.72c-2.96-2.75-7.76-2.75-10.72,0c-0.51,0.47-1.3,0.44-1.77-0.06
			c-0.47-0.51-0.44-1.3,0.06-1.77c3.9-3.62,10.24-3.62,14.13,0c2.96,2.75,7.77,2.75,10.72,0c3.9-3.62,10.24-3.62,14.13,0
			c2.95,2.75,7.76,2.75,10.72,0c3.9-3.62,10.24-3.62,14.13,0c0.51,0.47,0.54,1.26,0.06,1.77c-0.47,0.51-1.27,0.53-1.77,0.06
			c-2.95-2.75-7.77-2.75-10.72,0c-3.9,3.62-10.24,3.62-14.13,0c-2.96-2.75-7.77-2.75-10.72,0
			C470.17,65.85,467.61,66.76,465.05,66.76z"/>
	</g>
</g>
<g>
	<g>
		<path class="st71" d="M273.86,36.4c-2.56,0-5.12-0.91-7.07-2.72c-2.95-2.75-7.76-2.75-10.72,0c-0.51,0.47-1.3,0.44-1.77-0.06
			c-0.47-0.51-0.44-1.3,0.06-1.77c3.9-3.62,10.24-3.62,14.13,0c2.96,2.75,7.77,2.75,10.72,0c3.9-3.62,10.24-3.62,14.13,0
			c2.96,2.75,7.77,2.75,10.72,0c3.9-3.62,10.24-3.62,14.13,0c0.51,0.47,0.54,1.26,0.06,1.77c-0.47,0.51-1.26,0.53-1.77,0.06
			c-2.95-2.75-7.76-2.75-10.72,0c-3.9,3.62-10.24,3.62-14.13,0c-2.96-2.75-7.76-2.75-10.72,0C278.98,35.49,276.42,36.4,273.86,36.4z
			"/>
	</g>
</g>
<g>
	<g>
		<g>
			<path class="st84" d="M383.38,37.43c0.82-1.19-0.29-3.17,0.4-5.52c2.1-7.1-0.36-10.19-0.36-10.19c0.04-2.61-2.15-4.89-5.42-6.1
				c-1.53-0.56-3.3-0.89-5.19-0.9c-2.86-0.02-5.46,0.69-7.41,1.85c-2.08,1.25-3.59,3.03-3.42,5.01c0.12,1.4,1.62,3.25,0.09,5.61
				c-3.78,5.83-2.14,9.19-0.13,10.24c1.85,0.96,3.97,1.04,5.06,1.66C372.57,42.27,380.48,41.64,383.38,37.43z"/>
		</g>
	</g>
	<g>
		<path class="st93" d="M400.83,63.42c1.28-0.14,2.61-0.37,3.98-0.69c1-0.23,1.63-1.24,1.4-2.24c-0.23-1-1.23-1.63-2.24-1.4
			c-6.38,1.48-11.6,0.84-15.52-1.88c-5.99-4.15-7.05-11.82-7.06-11.9c-0.13-1.02-1.08-1.73-2.09-1.61
			c-1.02,0.13-1.74,1.07-1.61,2.09c0.05,0.38,1.3,9.39,8.63,14.48C390.26,63.01,395.12,64.06,400.83,63.42z"/>
	</g>
	<g>
		<path class="st94" d="M382.27,48.17c0.37,0,0.71,0.04,1.03,0.1c-0.63-1.77-0.82-3.07-0.83-3.1c-0.19-1.47-1.46-2.57-2.95-2.57
			c-0.12,0-0.23,0.01-0.37,0.02c-1.62,0.21-2.76,1.7-2.55,3.32c0.02,0.19,0.34,2.35,1.43,5.14
			C378.62,49.46,380.03,48.17,382.27,48.17z"/>
	</g>
	<g>
		<g>
			<path class="st93" d="M378.75,46.6c0.96-0.49,1.73-1.94,0.59-3.26c-1.13-1.31-2.86-2.03-4.73-2.1l-0.48-0.02
				c-1.65-0.06-3.14,0.65-4.14,1.82C370.78,45.49,376.16,47.59,378.75,46.6z"/>
		</g>
	</g>
	<g>
		<g>
			<path class="st93" d="M375.6,37.49l0.04,2.11l0.08,3.96l-3.04,0.05l-0.09-5.06l-0.04-1.96C373.46,37.2,374.51,37.54,375.6,37.49z
				"/>
		</g>
	</g>
	<g>
		<g>
			<g>
				<path class="st93" d="M375.6,37.99l0.04,2.11c-1.08-0.16-2.38-0.64-3.06-1.44l-0.03-1.57C373.46,37.71,374.51,38.04,375.6,37.99
					z"/>
			</g>
		</g>
	</g>
	<g>
		<g>
			<path class="st93" d="M374.84,39.08L374.84,39.08c-2.88-0.03-5.42-1.44-7.01-3.59c-1.1-1.49-1.74-3.33-1.72-5.32l0.04-3.47
				c0.03-2.52,1.1-4.78,2.81-6.37c1.6-1.48,3.74-2.38,6.09-2.36l0,0c1.55,0.02,3.01,0.43,4.27,1.15c2.69,1.53,4.49,4.44,4.46,7.75
				l-0.04,3.47c-0.03,3.19-1.75,5.97-4.31,7.49C378.1,38.64,376.52,39.09,374.84,39.08z"/>
		</g>
	</g>
	<g>
		<g>
			<path class="st67" d="M384.31,67.75c1.03,4.51-4.55,8.99-9.06,10.02c-4.51,1.03-8.99-1.8-10.01-6.3
				c-1.03-4.51,1.79-8.99,6.3-10.02C376.04,60.42,383.28,63.25,384.31,67.75z"/>
		</g>
	</g>
	<g>
		<g>
			<path class="st95" d="M375.43,34.49c0.19,1.09,1.14,1.93,2.3,1.94c1.15,0.01,2.12-0.81,2.34-1.9L375.43,34.49z"/>
		</g>
	</g>
	<g>
		<g>
			<path class="st94" d="M383.72,48.64c0.57,1.58-1.02,3.5-2.68,3.68c-1.67,0.18-3.7-2-3.88-3.66c-0.18-1.67,2.3-5.32,3.24-3.93
				C381.29,46.06,383.23,47.29,383.72,48.64z"/>
		</g>
	</g>
	<g>
		<g>
			<path class="st94" d="M369.99,43.04c-0.72,0.84-1.18,1.92-1.24,3.12c0,0,2.71,13.13-3.02,20.07c0,0,10.34,6.2,18.65,2.01
				c0-5.95-3.64-10.05-3.06-19.69c0.12-2.02-0.68-3.87-1.99-5.21C379.26,46.4,372.96,42.71,369.99,43.04z"/>
		</g>
	</g>
	<g>
		<g>
			<g>
				<g>
					<path class="st85" d="M378.86,109.62c0.2,1.96-0.15,3.53-0.07,4.02c0.13,0.8,3.74,1.54,4.2,3.77c0.62,3.05,4.63,3.38,5.29,3.5
						c1.66,0.33,3.14-0.51,2.27-2.13c-1.01-1.88-2.03-2.22-3.4-4.51c-2-3.36-2.16-5.62-3.21-7.63c-0.19-0.37-1.15-1.6-2.62-1.41
						C379.98,105.4,378.62,107.22,378.86,109.62z"/>
				</g>
			</g>
		</g>
		<g>
			<g>
				<g>
					<path class="st93" d="M384.73,115.54c-1.12-1.65-3.05-6.99-2.8-8.29c0.3-1.53,3.26-2.17,3.67-0.91
						c0.71,2.15,0.48,6.17,3.04,9.97C388.61,117.43,386.03,117.46,384.73,115.54z"/>
				</g>
			</g>
		</g>
	</g>
	<g>
		<g>
			<g>
				<g>
					<path class="st85" d="M432.3,83.76c1.45-1.33,2.92-1.99,3.26-2.35c0.56-0.58-1.01-3.92,0.51-5.61
						c2.08-2.32-0.06-5.73-0.35-6.33c-0.73-1.53-2.29-2.21-3.06-0.55c-0.9,1.94-0.56,2.96-1.58,5.42c-1.49,3.61-3.22,5.09-4.19,7.14
						c-0.18,0.37-0.59,1.88,0.43,2.95C428.26,85.38,430.53,85.39,432.3,83.76z"/>
				</g>
			</g>
		</g>
		<g>
			<g>
				<g>
					<path class="st93" d="M433.54,75.52c-0.65,1.88-3.78,6.63-4.97,7.2c-1.4,0.67-3.69-1.32-2.93-2.4c1.3-1.85,4.65-4.07,6.17-8.4
						C432.74,71.27,434.31,73.32,433.54,75.52z"/>
				</g>
			</g>
		</g>
	</g>
	<g>
		<path class="st67" d="M393.01,79.81l-0.14-0.07l-19.75-9.07c-1.87-0.86-4.09-0.04-4.95,1.83c-0.86,1.87-0.04,4.09,1.83,4.95
			c0.01,0,0.03,0.01,0.04,0.02l17,7.58l-6.01,20.64l5.17,1.71l8.62-23.23C395.43,82.45,394.63,80.56,393.01,79.81z"/>
	</g>
	<g>
		<path class="st93" d="M374.86,68.5c0.96,0,1.99-0.06,3.07-0.17c1.02-0.11,1.77-1.02,1.66-2.05c-0.11-1.02-1.02-1.76-2.05-1.66
			c-3.44,0.35-7.88,0.24-9.44-2.32c-2.46-4.04,2.19-12.92,4.01-15.72c0.56-0.86,0.32-2.02-0.54-2.58c-0.86-0.56-2.02-0.32-2.58,0.54
			c-0.85,1.3-8.19,12.94-4.07,19.7C366.65,67.07,369.99,68.5,374.86,68.5z"/>
	</g>
	<g>
		<g>
			<path class="st84" d="M365.15,27.66c0,0,6.25,2.23,10.15-0.48c3.9-2.71,5.69-6.9,3.98-9.35c-1.7-2.45-6.25-2.23-10.15,0.48
				C365.23,21.03,365.15,27.66,365.15,27.66z"/>
		</g>
	</g>
	<g>
		<path class="st67" d="M372.93,69.79c0,0,3.46,0.09,8.64,0.31c2.59,0.12,5.61,0.27,8.85,0.42c3.24,0.19,6.69,0.4,10.14,0.6
			l1.29,0.08l0.32,0.02l0.08,0l0.36,0.03l0.16,0.02l0.64,0.09l1.27,0.19l0.08,0.01l0.31,0.05l0.04,0.01l0.16,0.04l0.31,0.08
			l0.62,0.15c1.65,0.41,3.28,0.81,4.85,1.2c1.57,0.4,3.1,0.75,4.53,1.14c1.44,0.38,2.8,0.74,4.05,1.07
			c2.51,0.65,4.59,1.25,6.05,1.65c1.46,0.42,2.29,0.66,2.29,0.66l-1.05,4.68c0,0-0.85-0.14-2.35-0.38c-1.49-0.26-3.63-0.6-6.18-1.08
			c-1.28-0.23-2.66-0.49-4.12-0.76c-1.46-0.26-3-0.59-4.59-0.9c-1.59-0.32-3.23-0.64-4.9-0.98l-0.63-0.13l-0.32-0.06l-0.16-0.03
			l-0.04-0.01c-0.07-0.01,0.5,0.09,0.25,0.05l-0.02,0l-0.08-0.01l-1.28-0.15l-0.64-0.08l-0.16-0.02l-0.02,0
			c-0.07-0.01,0.52,0.05,0.26,0.03l-0.04,0l-0.08,0l-0.32-0.01l-1.3-0.05c-3.46-0.14-6.91-0.27-10.15-0.4
			c-3.24-0.16-6.26-0.32-8.85-0.45c-5.18-0.29-8.63-0.54-8.63-0.54L372.93,69.79z"/>
	</g>
	<g>
		<g>
			<path class="st94" d="M374.07,71.99c0-0.62,0.5-1.12,1.12-1.12h40.62c0.85,0,1.55,0.5,1.55,1.12c0,0.62-0.7,1.12-1.55,1.12
				h-40.62C374.57,73.11,374.07,72.61,374.07,71.99L374.07,71.99z"/>
		</g>
		<g>
			<path class="st9" d="M372.47,71.99c0,0.62,0.54,1.12,1.21,1.12h15.43c0.66,0,1.21-0.5,1.21-1.12c0-0.62-0.54-1.12-1.21-1.12
				h-15.43C373.01,70.87,372.47,71.37,372.47,71.99z"/>
		</g>
		<g>
			<path class="st73" d="M417.3,49.85v20.49c0,0.91-0.74,1.65-1.65,1.65h-27.03c-0.91,0-1.65-0.74-1.65-1.65V49.85
				c0-0.91,0.74-1.65,1.65-1.65h27.03C416.56,48.2,417.3,48.94,417.3,49.85z"/>
		</g>
		<g>
			<path class="st19" d="M418.56,49.85v20.49c0,0.91-0.74,1.65-1.65,1.65h-27.03c-0.91,0-1.65-0.74-1.65-1.65V49.85
				c0-0.91,0.74-1.65,1.65-1.65h27.03C417.82,48.2,418.56,48.94,418.56,49.85z"/>
		</g>
		<g>
			<path class="st86" d="M398.93,60.09L398.93,60.09c0-0.96,0.78-1.74,1.74-1.74h5.43c0.96,0,1.74,0.78,1.74,1.74l0,0
				c0,0.96-0.78,1.74-1.74,1.74h-5.43C399.71,61.84,398.93,61.05,398.93,60.09z"/>
		</g>
	</g>
	<g>
		<path class="st94" d="M366.89,47.85c2.2,0,3.6,1.25,4.2,2.84c0.68-1.4,1.38-2.64,1.95-3.5c0.89-1.36,0.5-3.2-0.86-4.09
			c-0.48-0.32-1.04-0.48-1.61-0.48c-1,0-1.93,0.5-2.48,1.34c-0.43,0.65-1.33,2.11-2.29,4.02C366.13,47.89,366.5,47.85,366.89,47.85z
			"/>
	</g>
	<g>
		<g>
			<path class="st93" d="M386.02,65.01c0.45,1.01,0.49,2.1,0.2,3.09l-6.27,2.77c-0.93-0.45-1.7-1.21-2.15-2.23
				c-1.01-2.27,0.02-4.93,2.29-5.93C382.36,61.71,385.02,62.73,386.02,65.01z"/>
		</g>
	</g>
</g>
<g>
	<g>
		<g>
			<path class="st96" d="M163.3,271.95l-4.17,15.96l-13.66,5.7l1.93,4.62l14.81-6.17c0.72-0.3,1.26-0.92,1.46-1.68l4.48-17.16
				c0.35-1.33-0.45-2.68-1.77-3.03l-0.05-0.01C165,269.83,163.65,270.63,163.3,271.95z"/>
		</g>
	</g>
	<g>
		<g>
			<path class="st94" d="M154.86,317.64c1.18-0.86,1.54-2.43,0.9-3.7c0,0-0.38-0.75-1.06-2.05c-0.7-1.3-1.66-3.17-2.87-5.38
				c-1.07-1.97-2.31-4.23-3.66-6.63c1.59,0.35,3.15,0.69,4.67,1.01c1.54,0.33,3.03,0.64,4.44,0.93c1.41,0.29,2.75,0.56,3.98,0.81
				c2.47,0.5,4.53,0.87,5.98,1.15c1.44,0.27,2.27,0.41,2.27,0.41c2.19,0.37,4.26-1.1,4.63-3.29c0.35-2.09-0.98-4.07-3.01-4.58
				c0,0-0.82-0.2-2.25-0.52c-1.43-0.32-3.48-0.79-5.94-1.32c-1.23-0.26-2.57-0.54-3.98-0.84c-1.41-0.29-2.9-0.59-4.45-0.9
				c-3.09-0.62-6.38-1.25-9.68-1.87l-1.24-0.23l-0.31-0.06l-0.15-0.03l-0.04-0.01l-0.32-0.05l-0.02,0l-0.08-0.01
				c-1.31-0.15-2.48,0.22-3.4,0.87c-0.92,0.66-1.57,1.6-1.87,2.68c-0.31,1.08-0.19,2.35,0.29,3.33c0.33,0.65,0.3,0.52,0.37,0.65
				l0.17,0.26l0.33,0.52c0.9,1.39,1.78,2.75,2.64,4.07c1.72,2.64,3.35,5.09,4.76,7.17c1.4,2.1,2.62,3.81,3.45,5.03
				c0.84,1.21,1.33,1.89,1.33,1.89C151.7,318.3,153.54,318.59,154.86,317.64z"/>
		</g>
	</g>
	<g id="_x38_._Right_shoe_172_">
		<g>
			<g>
				<path class="st84" d="M151.19,317.83c1.81,1.28,4.32,0.86,5.61-0.96c1.28-1.81,0.85-4.32-0.96-5.61
					c-1.81-1.28-4.32-0.85-5.61,0.96C148.95,314.04,149.38,316.55,151.19,317.83z"/>
			</g>
		</g>
		<g>
			<g>
				<path class="st84" d="M147.95,329.37l8.81-12.44c0.93-1.32,0.62-3.13-0.7-4.07l0,0c-1.31-0.93-5.4-1.25-6.33,0.06l-4.97,14.55
					c-0.55,1.6,1.14,3.17,2.63,2.37C147.62,329.72,147.81,329.57,147.95,329.37z"/>
			</g>
		</g>
		<g>
			<g>
				<path class="st9" d="M148.87,318.47L148.87,318.47c-0.05-0.42-0.48-0.69-0.88-0.56l-1.48,0.48c-0.31,0.1-0.5,0.41-0.46,0.73l0,0
					c0.05,0.42,0.48,0.69,0.88,0.56l1.48-0.48C148.72,319.1,148.91,318.8,148.87,318.47z"/>
			</g>
		</g>
		<g>
			<g>
				<path class="st9" d="M149.14,320.65L149.14,320.65c-0.05-0.42-0.48-0.69-0.88-0.56l-1.48,0.48c-0.31,0.1-0.5,0.4-0.46,0.73l0,0
					c0.05,0.42,0.48,0.69,0.88,0.56l1.48-0.48C148.98,321.27,149.18,320.97,149.14,320.65z"/>
			</g>
		</g>
		<g>
			<g>
				<path class="st97" d="M152.12,316.52c1.09,0.77,2.59,0.51,3.36-0.57c0.77-1.09,0.51-2.59-0.57-3.36
					c-1.09-0.77-2.59-0.51-3.36,0.57C150.77,314.24,151.03,315.75,152.12,316.52z"/>
			</g>
		</g>
	</g>
	<g>
		<g>
			<path class="st84" d="M170.77,261.68l0.45,3.32l0.73-0.23c0.55-0.18,0.93-0.7,0.93-1.28l0,0c0-0.39,0.17-0.77,0.47-1.02
				l1.87-1.91c0.78-0.8,1.33-1.81,1.5-2.91c0.13-0.82,0.07-1.72-0.46-2.41c-0.74-0.96,1.78-3.59-0.01-5.81
				c-0.81-1-2.07-1.73-2.6-2.81c-1.74-3.59-4.36-3.31-6.2-2.01c-1.63,1.15-2.34-1.18-5.54-0.78c-2.49,0.31-3.49,2.09-3.29,3.57
				c0,0-4.25,0.17-4.25,4.92c0,4.75,5.01,5.34,5.01,5.34L170.77,261.68z"/>
		</g>
	</g>
	<g>
		<g>
			<polygon class="st93" points="165.61,258.12 166.32,266.14 166.78,271.39 172.93,270.85 171.53,258.05 171.13,254.41 			"/>
		</g>
	</g>
	<g>
		<g>
			<g>
				<path class="st93" d="M170.49,262.12v1.28c-1,1.26-2.58,2.23-4.17,2.74l-0.35-4.02H170.49z"/>
			</g>
		</g>
	</g>
	<g>
		<g>
			<path class="st93" d="M163.95,265.87h-1c-2.18,0-4.73-4.22-4.73-6.4c0-2.6,0.22-3.91,0-5.66c-0.3-2.4,1.96-4.39,4.39-4.39h4.91
				c1.85,0,3.34,1.5,3.34,3.34v7.96C170.86,263.57,166.79,265.87,163.95,265.87z"/>
		</g>
	</g>
	<g>
		<g>
			<path class="st84" d="M163.34,249.43c0,0-0.44,3.63,5.68,3.4c0,0-0.18,7.16,3.04,7.68l0.57-2.41c0,0,1.33-7.85-1.64-9.18
				C168.01,247.58,163.34,249.43,163.34,249.43z"/>
		</g>
	</g>
	<g>
		<g>
			<path class="st93" d="M174.11,267.43c-0.67-0.42-1.49-0.6-2.33-0.47l-2.71,0.43c-1.31,0.21-2.5,0.73-3.49,1.48
				C168.43,269.58,171.82,269.16,174.11,267.43z"/>
		</g>
	</g>
	<g>
		<g>
			<path class="st96" d="M178.4,272.25c-0.23-2.13-2.22-4.19-4.29-4.81c-2.29,1.72-5.68,2.14-8.53,1.43
				c-2.23,1.68-3.49,4.51-3.03,7.47l2.88,16.22l14.64-1.99C180.07,290.57,178.92,277.1,178.4,272.25z"/>
		</g>
	</g>
	<g>
		<g>
			<path class="st94" d="M124.27,318.72c0,0,0.56-0.63,1.57-1.71c1.01-1.07,2.44-2.64,4.19-4.46c1.75-1.83,11.39-11.6,11.39-11.6
				l0.22-0.2c0.15-0.13,0.3-0.25,0.45-0.37c0.31-0.23,0.64-0.45,0.98-0.65c0.68-0.39,1.42-0.68,2.19-0.87
				c0.19-0.05,0.38-0.09,0.58-0.12c0.09-0.02,16.45-1.54,17.85-1.89c2.48-0.61,1.56-5.27,1.56-5.27l14.7-2.25
				c0.1,2.1,1.46,4.14,1.83,5.52c0.59,2.19,0.23,4.42-0.82,6.24c-1.05,1.83-2.8,3.25-4.99,3.84c-1.07,0.29-2.16,0.35-3.19,0.21
				c-0.39,0.04-0.99,0.09-1.76,0.15c-1.47,0.11-3.57,0.29-6.09,0.45c-1.26,0.08-2.63,0.17-4.07,0.26c-1.45,0.08-2.97,0.17-4.55,0.26
				c-1.58,0.08-3.21,0.16-4.86,0.25c-1.43,0.06-2.89,0.13-4.35,0.19c-0.05,0-0.11,0.02-0.16,0.04c-0.03,0.01-0.05,0.02-0.08,0.03
				l-0.04,0.02c-0.01,0-0.01,0.01-0.02,0.01l-0.01,0.01l-0.05,0.05c-0.62,0.56-1.24,1.13-1.86,1.68c-1.24,1.11-2.45,2.2-3.63,3.26
				c-2.36,2.11-4.58,4.05-6.49,5.71c-1.91,1.66-3.54,3.01-4.66,3.97c-1.13,0.95-1.79,1.48-1.79,1.48c-1.1,0.89-2.72,0.88-3.81-0.09
				C123.3,321.79,123.19,319.93,124.27,318.72z"/>
		</g>
	</g>
	<g id="_x38_._Right_shoe_171_">
		<g>
			<g>
				<path class="st84" d="M121.91,320.55c-0.7,2.11,0.44,4.39,2.55,5.08c2.11,0.7,4.38-0.44,5.08-2.55c0.7-2.11-0.44-4.38-2.55-5.08
					C124.88,317.3,122.61,318.44,121.91,320.55z"/>
			</g>
		</g>
		<g>
			<g>
				<path class="st84" d="M109.93,320.81l14.46,4.8c1.53,0.51,3.18-0.32,3.69-1.85l0,0c0.51-1.53-0.37-5.53-1.9-6.03l-15.36-0.51
					c-1.69-0.06-2.7,2.01-1.49,3.21C109.49,320.6,109.7,320.74,109.93,320.81z"/>
			</g>
		</g>
		<g>
			<g>
				<path class="st9" d="M121.16,319.4L121.16,319.4c0.43,0,0.75-0.39,0.67-0.8l-0.29-1.53c-0.06-0.32-0.34-0.55-0.67-0.55l0,0
					c-0.43,0-0.75,0.39-0.67,0.8l0.29,1.53C120.55,319.17,120.83,319.4,121.16,319.4z"/>
			</g>
		</g>
		<g>
			<g>
				<path class="st9" d="M118.97,319.4L118.97,319.4c0.43,0,0.75-0.39,0.67-0.8l-0.29-1.53c-0.06-0.32-0.34-0.55-0.67-0.55l0,0
					c-0.42,0-0.75,0.39-0.66,0.8l0.29,1.53C118.37,319.17,118.65,319.4,118.97,319.4z"/>
			</g>
		</g>
		<g>
			<g>
				<path class="st97" d="M123.44,321.05c-0.42,1.26,0.27,2.63,1.53,3.05c1.26,0.42,2.63-0.27,3.05-1.53
					c0.42-1.26-0.27-2.63-1.53-3.05C125.22,319.11,123.85,319.79,123.44,321.05z"/>
			</g>
		</g>
	</g>
	<g>
		<g>
			<path class="st95" d="M165.23,261.96c-0.2,1.05-1.11,1.84-2.22,1.84c-1.11,0-2.02-0.79-2.22-1.84H165.23z"/>
		</g>
	</g>
	<g>
		<g>
			<path class="st93" d="M137.1,291.11c1.05-0.16,1.95-0.69,2.59-1.44l-1.01-6.48c-0.84-0.51-1.86-0.74-2.9-0.58
				c-2.35,0.37-3.95,2.57-3.58,4.91C132.56,289.87,134.76,291.48,137.1,291.11z"/>
		</g>
	</g>
	<g>
		<g>
			<path class="st96" d="M177.97,291.51c0.59-0.2,1.09-0.61,1.39-1.17c0.33-0.59,0.4-1.29,0.2-1.94l-5.63-18.3l-4.79,1.48
				l4.87,15.83l-11.85,3.23l1.32,4.83l14.35-3.91C177.87,291.54,177.92,291.53,177.97,291.51z"/>
		</g>
	</g>
	<g>
		<g>
			
				<rect x="176.63" y="272.26" transform="matrix(0.9622 -0.2723 0.2723 0.9622 -69.5558 58.7761)" class="st98" width="0.72" height="15.46"/>
		</g>
	</g>
	<g>
		<g>
			<polygon class="st98" points="172.83,283 170.36,274.22 169.51,274.33 171.98,283.11 			"/>
		</g>
	</g>
	<g>
		<g>
			<path class="st93" d="M156.14,292.58c-0.14,1.05,0.11,2.06,0.64,2.89l6.5,0.87c0.73-0.66,1.24-1.57,1.38-2.62
				c0.31-2.35-1.34-4.52-3.69-4.83C158.62,288.58,156.46,290.23,156.14,292.58z"/>
		</g>
	</g>
	<g>
		<g>
			<path class="st94" d="M167.75,295.83c0-0.59-0.48-1.07-1.07-1.07h-38.84c-0.81,0-1.48,0.48-1.48,1.07c0,0.59,0.67,1.07,1.48,1.07
				h38.84C167.27,296.9,167.75,296.42,167.75,295.83L167.75,295.83z"/>
		</g>
		<g>
			<path class="st9" d="M169.27,295.82c0,0.59-0.52,1.07-1.16,1.07h-14.75c-0.64,0-1.16-0.48-1.16-1.07c0-0.59,0.52-1.07,1.16-1.07
				h14.75C168.75,294.75,169.27,295.23,169.27,295.82z"/>
		</g>
		<g>
			<path class="st9" d="M126.41,274.65v19.59c0,0.87,0.71,1.58,1.58,1.58h25.84c0.87,0,1.58-0.71,1.58-1.58v-19.59
				c0-0.87-0.71-1.58-1.58-1.58h-25.84C127.12,273.07,126.41,273.78,126.41,274.65z"/>
		</g>
		<g>
			<path class="st99" d="M125.21,274.65v19.59c0,0.87,0.71,1.58,1.58,1.58h25.84c0.87,0,1.58-0.71,1.58-1.58v-19.59
				c0-0.87-0.71-1.58-1.58-1.58h-25.84C125.91,273.07,125.21,273.78,125.21,274.65z"/>
		</g>
		<g>
			<path class="st9" d="M143.97,284.45L143.97,284.45c0-0.92-0.75-1.67-1.67-1.67h-5.19c-0.92,0-1.67,0.75-1.67,1.67l0,0
				c0,0.92,0.75,1.67,1.67,1.67h5.19C143.22,286.11,143.97,285.37,143.97,284.45z"/>
		</g>
	</g>
</g>
<g>
	<g id="_x38_._Right_shoe_170_">
		<g>
			<g>
				<path class="st67" d="M499.49,358.55c-0.67,2.34,0.69,4.77,3.02,5.44c2.34,0.67,4.77-0.69,5.43-3.02
					c0.67-2.33-0.69-4.77-3.02-5.43C502.59,354.86,500.16,356.21,499.49,358.55z"/>
			</g>
		</g>
		<g>
			<g>
				<path class="st67" d="M486.42,359.39l16.02,4.57c1.69,0.48,3.46-0.5,3.94-2.19l0,0c0.48-1.69-0.66-6.02-2.36-6.5l-16.8,0.15
					c-1.85,0.02-2.85,2.32-1.48,3.57C485.94,359.18,486.16,359.32,486.42,359.39z"/>
			</g>
		</g>
		<g>
			<g>
				<path class="st9" d="M498.62,357.33L498.62,357.33c0.46-0.02,0.8-0.46,0.69-0.91l-0.39-1.66c-0.08-0.35-0.4-0.59-0.75-0.57l0,0
					c-0.46,0.02-0.8,0.46-0.69,0.91l0.39,1.66C497.95,357.11,498.26,357.35,498.62,357.33z"/>
			</g>
		</g>
		<g>
			<g>
				<path class="st9" d="M496.23,357.43L496.23,357.43c0.46-0.02,0.8-0.46,0.69-0.91l-0.39-1.66c-0.08-0.35-0.4-0.59-0.75-0.57l0,0
					c-0.46,0.02-0.8,0.46-0.69,0.91l0.39,1.66C495.56,357.21,495.87,357.45,496.23,357.43z"/>
			</g>
		</g>
	</g>
	<g>
		<g>
			<path class="st65" d="M508.55,328.63l0.09-0.05l24.01-14.16l7.18,7.79l-25.2,13.36l-5.91,25.72l-0.18-0.03l-6.75-6.12l4.57-23.58
				C506.61,330.36,507.38,329.25,508.55,328.63z"/>
		</g>
	</g>
	<g id="_x38_._Right_shoe_169_">
		<g>
			<g>
				<path class="st67" d="M556.89,368.07c0.01,2.19,1.78,3.95,3.96,3.95c2.18-0.01,3.95-1.78,3.94-3.96c0-2.18-1.78-3.95-3.96-3.94
					C558.65,364.12,556.89,365.89,556.89,368.07z"/>
			</g>
		</g>
		<g>
			<g>
				<path class="st67" d="M545.81,372.05l14.98-0.03c1.58,0,2.86-1.29,2.86-2.87l0,0c0-1.58-2.07-5.04-3.65-5.03l-14.48,4.31
					c-1.6,0.47-1.89,2.72-0.39,3.45C545.34,371.99,545.57,372.05,545.81,372.05z"/>
			</g>
		</g>
		<g>
			<g>
				<path class="st9" d="M555.84,367.24L555.84,367.24c0.4-0.13,0.57-0.59,0.37-0.96l-0.75-1.34c-0.16-0.28-0.49-0.41-0.79-0.3l0,0
					c-0.4,0.13-0.57,0.59-0.37,0.96l0.75,1.34C555.2,367.21,555.54,367.34,555.84,367.24z"/>
			</g>
		</g>
		<g>
			<g>
				<path class="st9" d="M553.8,367.92L553.8,367.92c0.4-0.13,0.57-0.59,0.37-0.96l-0.75-1.34c-0.16-0.28-0.49-0.41-0.79-0.31l0,0
					c-0.4,0.13-0.57,0.59-0.37,0.96l0.75,1.34C553.17,367.89,553.5,368.02,553.8,367.92z"/>
			</g>
		</g>
	</g>
	<g>
		<g>
			<path class="st65" d="M529.17,310.9l15.93-1.74c0.99,1.12,2.19,4.6,2.54,6.16c0.56,2.49,0.06,4.99-1.21,6.99
				c-1.27,2.01-3.29,3.53-5.79,4.1c-1.22,0.28-7.26,0.37-10.1-2.4C526.38,319.97,529.17,310.9,529.17,310.9z"/>
		</g>
	</g>
	<g>
		<g>
			<path class="st65" d="M539.11,319.41h10.25l-3.94,24.39l17.3,20.15l-8.97,2.52l-16.51-18.51c-0.81-0.92-1.23-2.2-1.02-3.5
				L539.11,319.41z"/>
		</g>
	</g>
	<g>
		<g>
			<path class="st100" d="M497.23,309.05l23.74-0.41c1.05-0.02,2-0.62,2.47-1.55l9.31-18.5l-5.04-2.54l-8.54,16.98l-22.03,0.38
				L497.23,309.05z"/>
		</g>
	</g>
	<g>
		<g>
			<polygon class="st93" points="531.11,271.41 531.83,286.39 538.77,286.06 537.77,271.59 537.49,267.47 			"/>
		</g>
	</g>
	<g>
		<g>
			<g>
				<path class="st93" d="M536.42,276.13c0,0-1.57,3.86-4.85,4.82l-0.24-5.02L536.42,276.13z"/>
			</g>
		</g>
	</g>
	<g>
		<g>
			<path class="st93" d="M528.85,280.28c-0.28-0.05-0.81-0.19-1.08-0.27c-2.58-0.71-5.13-4.97-5.03-7.42
				c0.12-2.92,0.42-4.39,0.25-6.37c-0.23-2.72,2.41-4.85,5.13-4.74l5.53,0.22c2.08,0.08,3.69,1.83,3.61,3.91l-0.36,8.96
				C536.77,277.77,532.01,280.78,528.85,280.28z"/>
		</g>
	</g>
	<g>
		<g>
			<path class="st93" d="M540.26,282.27c-0.74-0.5-1.65-0.74-2.6-0.63l-3.07,0.36c-1.49,0.17-2.84,0.71-4,1.51
				C533.77,284.43,537.6,284.1,540.26,282.27z"/>
		</g>
	</g>
	<g>
		<g>
			<path class="st100" d="M545.03,288.17c-0.14-2.41-2.28-5.67-4.91-5.99c-4.45,0.63-8.45,0.87-9.95,1.23
				c-2.59,1.79-4.13,4.92-3.74,8.27l0.39,27.71c8.33,5.87,23.58,3.51,23.58,3.51C550.39,310.94,545.3,292.91,545.03,288.17z"/>
		</g>
	</g>
	<g>
		<g>
			<path class="st100" d="M513.92,308.89l19.38,0.21c1.41,0.02,2.61-1.01,2.82-2.4l3.19-21.33l-5.58-0.84l-2.83,18.9l-16.92-0.18
				L513.92,308.89z"/>
		</g>
	</g>
	<g>
		<g>
			<path class="st84" d="M530.96,283.26c1.27-0.3,3.52-0.38,7.11-0.81c-1.99,4.67-7.36,8.55-8.94,14.02
				C528.29,295.56,528.37,285.05,530.96,283.26z"/>
		</g>
	</g>
	<g>
		<g>
			<path class="st70" d="M531.18,284.12c0.23-0.26,0.97-0.78,0.99-1.06c0.57-0.07,0.48,0.15,1.28,0.07
				c-2.17,2.01-0.92,5.32-1.77,8.35c-1.09,1.55-2.03,3.18-2.56,4.98c-0.46-0.5-0.64-3.95-0.27-7.23
				C528.89,288.88,529.41,286.13,531.18,284.12z"/>
		</g>
	</g>
	<g>
		<path class="st101" d="M530.92,284.64c0.27,0.36,1.44,0.53,1.81,0.27c0.35-0.25,0.7-1.61,0.7-1.61l-2.7-0.41
			C530.73,282.89,530.66,284.29,530.92,284.64z"/>
	</g>
	<g>
		<g>
			<path class="st94" d="M526.15,266.92c-10.7-2.33-2.99-9.12-2.99-9.12s0.21,2.54,2.29,1.71c3.96-1.59,12.59-2.59,14.96,2.59
				c1.84,4.03-1.59,12.85-2.24,15.15c-1.07-0.67-0.17-11.05-4.55-10.61C531.22,266.87,528.5,267.43,526.15,266.92z"/>
		</g>
	</g>
	<g>
		<g>
			<path class="st95" d="M527.77,278.04c-2.19-0.1-0.78-3.71,0.05-3.66C528.66,274.42,529.96,278.14,527.77,278.04z"/>
		</g>
	</g>
	<g>
		<polygon class="st9" points="534.79,285.86 540.22,282.25 538.38,280.24 531.92,283.11 		"/>
	</g>
	<g>
		<polygon class="st9" points="530.28,284.47 530.59,283.26 531.63,282.18 532.07,283.11 		"/>
	</g>
	<g>
		<g>
			<path class="st102" d="M535.17,302.32c0-0.66-0.54-1.19-1.2-1.19h-43.32c-0.91,0-1.65,0.54-1.65,1.19s0.74,1.2,1.65,1.2h43.32
				C534.64,303.52,535.17,302.98,535.17,302.32L535.17,302.32z"/>
		</g>
		<g>
			<path class="st103" d="M536.87,302.32c0,0.66-0.58,1.2-1.29,1.2h-16.45c-0.71,0-1.29-0.54-1.29-1.2s0.58-1.19,1.29-1.19h16.45
				C536.29,301.13,536.87,301.66,536.87,302.32z"/>
		</g>
		<g>
			<path class="st103" d="M489.07,278.71v21.85c0,0.97,0.79,1.76,1.76,1.76h28.82c0.97,0,1.76-0.79,1.76-1.76v-21.85
				c0-0.97-0.79-1.76-1.76-1.76h-28.82C489.86,276.95,489.07,277.74,489.07,278.71z"/>
		</g>
		<g>
			<path class="st65" d="M487.73,278.71v21.85c0,0.97,0.79,1.76,1.76,1.76h28.82c0.97,0,1.76-0.79,1.76-1.76v-21.85
				c0-0.97-0.79-1.76-1.76-1.76h-28.82C488.52,276.95,487.73,277.74,487.73,278.71z"/>
		</g>
		<g>
			<path class="st103" d="M508.65,289.63L508.65,289.63c0-1.03-0.83-1.86-1.86-1.86h-5.79c-1.02,0-1.86,0.83-1.86,1.86l0,0
				c0,1.03,0.83,1.86,1.86,1.86h5.79C507.82,291.49,508.65,290.66,508.65,289.63z"/>
		</g>
	</g>
	<g>
		<g>
			<path class="st93" d="M515.74,306.07c0.2-1.18-0.05-2.33-0.62-3.28l-7.29-1.23c-0.85,0.71-1.46,1.72-1.65,2.9
				c-0.44,2.64,1.34,5.14,3.97,5.58C512.8,310.48,515.29,308.71,515.74,306.07z"/>
		</g>
	</g>
	<g>
		<g>
			<path class="st93" d="M500.36,304.72c0.1-1.19-0.24-2.31-0.89-3.21l-7.36-0.61c-0.78,0.78-1.31,1.83-1.41,3.03
				c-0.22,2.67,1.76,5.01,4.43,5.23C497.8,309.37,500.14,307.39,500.36,304.72z"/>
		</g>
	</g>
</g>
<g>
	<g>
		<g>
			<g>
				<path class="st84" d="M221.1,64.58c-0.96,0-1.91-0.44-2.52-1.28L207.8,48.54c-0.84-1.15-0.79-2.72,0.11-3.82L222,27.61
					c1.09-1.33,3.06-1.52,4.38-0.43c1.33,1.09,1.52,3.06,0.42,4.39l-12.56,15.25l9.36,12.81c1.02,1.39,0.71,3.34-0.68,4.35
					C222.38,64.39,221.74,64.58,221.1,64.58z"/>
			</g>
		</g>
	</g>
	<g>
		<g>
			<g>
				<path class="st84" d="M241.8,64.55c-0.64,0-1.28-0.19-1.84-0.6c-1.39-1.02-1.69-2.96-0.67-4.35l9.4-12.84l-12.51-15.21
					c-1.09-1.33-0.9-3.29,0.43-4.39c1.33-1.09,3.29-0.9,4.38,0.43l14.04,17.07c0.9,1.1,0.95,2.67,0.11,3.82l-10.83,14.79
					C243.7,64.11,242.76,64.55,241.8,64.55z"/>
			</g>
		</g>
	</g>
	<g>
		<g>
			<g>
				<path class="st100" d="M240.75,9.99c0,4.96-4.02,8.99-8.99,8.99c-4.96,0-8.99-4.02-8.99-8.99S226.8,1,231.77,1
					C236.73,1,240.75,5.02,240.75,9.99z"/>
			</g>
		</g>
	</g>
	<g>
		<g>
			<g>
				<polygon class="st93" points="235.06,19.57 235.04,28.12 235.02,33.71 228.47,33.69 228.8,20.03 228.89,16.14 				"/>
			</g>
		</g>
	</g>
	<g>
		<g>
			<g>
				<path class="st84" d="M222.02,32.97c0.02-2.67,2.33-5.25,4.71-6.49c3.57-1.86,9.09-0.57,10.84,0.48
					c2.99,1.78,4.77,5.39,4.56,9.11L242.35,56h-21.17C221.18,56,221.97,39.03,222.02,32.97z"/>
			</g>
		</g>
	</g>
	<g>
		<path class="st9" d="M232.08,38.98c1.55-4.78,3.26-8.12,4.8-12.37c-4.71-1.77-9.26-0.78-10.23,0c1.54,4.25,3.24,7.59,4.8,12.37
			c0.08,0.34,0.31,0.9,0.32,0.89c0.01,0.01,0.01,0.03,0.02,0.03C231.8,39.85,232,39.32,232.08,38.98z"/>
	</g>
	<g>
		<polygon class="st70" points="232.33,26.95 231.76,26.95 231.2,26.95 230.14,33.41 230.89,37.34 231.76,39.87 232.64,37.34 
			233.39,33.41 		"/>
	</g>
	<g>
		<g>
			<g>
				<path class="st93" d="M233.47,3.11h-3.41c-3.01,0-5.83,2.47-5.46,5.46c0.28,2.18,0,3.81,0,7.04c0,2.71,3.17,7.96,5.88,7.96h2.56
					c2.71,0,5.88-5.26,5.88-7.96c0-3.23-0.28-4.86,0-7.04C239.3,5.58,236.48,3.11,233.47,3.11z"/>
			</g>
		</g>
	</g>
	<g>
		<g>
			<g>
				<path class="st95" d="M229,18.97c0.25,1.31,1.39,2.29,2.76,2.29c1.38,0,2.52-0.99,2.76-2.29H229z"/>
			</g>
		</g>
	</g>
	<g>
		<g>
			<g>
				<path class="st94" d="M235.17,75.07h-6.8c-4.89,0-8.55-4.47-7.59-9.26l0.41-9.8h21.17l0.41,9.8
					C243.72,70.6,240.05,75.07,235.17,75.07z"/>
			</g>
		</g>
	</g>
	<g>
		<g>
			<g>
				<g>
					<path class="st97" d="M245.66,68.29h-26.83c-1.16,0-2.11-0.94-2.11-2.1v-15c0-1.16,0.94-2.1,2.11-2.1h26.83
						c1.16,0,2.11,0.94,2.11,2.1v15C247.77,67.35,246.82,68.29,245.66,68.29z"/>
				</g>
			</g>
		</g>
		<g>
			<g>
				<g>
					<path class="st9" d="M245.66,69.18h-26.83c-1.16,0-2.11-0.94-2.11-2.1v-15c0-1.16,0.94-2.11,2.11-2.11h26.83
						c1.16,0,2.11,0.94,2.11,2.11v15C247.77,68.24,246.82,69.18,245.66,69.18z"/>
				</g>
			</g>
		</g>
		<g>
			<g>
				<g>
					<path class="st97" d="M235.34,61.17h-6.2c-0.87,0-1.58-0.71-1.58-1.58v-0.03c0-0.88,0.71-1.58,1.58-1.58h6.2
						c0.88,0,1.58,0.71,1.58,1.58v0.03C236.93,60.46,236.22,61.17,235.34,61.17z"/>
				</g>
			</g>
		</g>
	</g>
	<g>
		<path class="st70" d="M232.6,27.32c-0.32,0.29-1.46,0.26-1.77-0.05c-0.29-0.3-0.39-1.65-0.39-1.65l2.64,0.07
			C233.08,25.69,232.91,27.04,232.6,27.32z"/>
	</g>
	<g>
		<polygon class="st73" points="228.97,28.99 226.74,26.31 228.6,23.92 231.76,25.64 		"/>
	</g>
	<g>
		<polygon class="st73" points="234.56,28.99 236.79,26.31 234.93,23.92 231.76,25.64 		"/>
	</g>
	<g>
		<g>
			<g>
				<g>
					<path class="st84" d="M235.47,98.3l1.82-6.84l-0.13-0.01c-0.42-0.02-0.71-0.41-0.62-0.81c0.07-0.31,0.35-0.52,0.67-0.51
						l0.43,0.02l0.21-0.77l-0.21-0.01c-0.42-0.02-0.72-0.41-0.62-0.81c0.07-0.31,0.35-0.52,0.67-0.51l0.51,0.02l1.15-4.3
						c0.05-0.08,0.12-0.16,0.19-0.24c0.07-0.16,0.15-0.33,0.24-0.48c1.13-1.86,3.55-2.44,5.41-1.31c1.86,1.13,2.44,3.55,1.31,5.41
						c-0.01,0.02-0.02,0.03-0.03,0.04c0,0.01-0.01,0.02-0.01,0.02l-7.76,12.74c-0.12,0.2-0.3,0.37-0.51,0.5
						C236.79,101.32,235.04,99.91,235.47,98.3z"/>
				</g>
			</g>
		</g>
		<g id="_x38_._Right_shoe_174_">
			<g>
				<g>
					<g>
						<path class="st102" d="M240.15,88.24c1.86,1.13,4.28,0.54,5.41-1.31c1.13-1.86,0.54-4.28-1.31-5.41
							c-1.86-1.13-4.28-0.54-5.41,1.31C237.71,84.68,238.29,87.11,240.15,88.24z"/>
					</g>
				</g>
			</g>
			<g>
				<g>
					<g>
						<path class="st99" d="M237.76,99.72l7.76-12.74c0.82-1.35,0.39-3.1-0.95-3.93l0,0c-1.35-0.82-5.35-0.86-6.17,0.49l-3.87,14.54
							c-0.43,1.6,1.33,3.02,2.73,2.13C237.46,100.09,237.64,99.93,237.76,99.72z"/>
					</g>
				</g>
			</g>
			<g>
				<g>
					<g>
						<path class="st9" d="M238.89,88.7L238.89,88.7c0.09-0.41-0.21-0.8-0.62-0.81l-1.52-0.06c-0.32-0.01-0.6,0.2-0.67,0.51l0,0
							c-0.09,0.41,0.21,0.8,0.62,0.81l1.52,0.06C238.54,89.22,238.82,89.01,238.89,88.7z"/>
					</g>
				</g>
			</g>
			<g>
				<g>
					<g>
						<path class="st9" d="M238.41,90.78L238.41,90.78c0.09-0.41-0.21-0.8-0.62-0.81l-1.52-0.05c-0.32-0.01-0.6,0.2-0.67,0.51l0,0
							c-0.09,0.41,0.21,0.79,0.62,0.81l1.52,0.06C238.06,91.31,238.34,91.1,238.41,90.78z"/>
					</g>
				</g>
			</g>
		</g>
	</g>
	<g>
		<g>
			<g>
				<path class="st104" d="M221.26,63.93l23.6,16.92l-7.42,6.37L216.2,71c-1.93-1.39-2.38-4.07-0.99-6.01l0.05-0.07
					C216.64,62.99,219.33,62.54,221.26,63.93z"/>
			</g>
		</g>
	</g>
	<g>
		<g>
			<g>
				<g>
					<path class="st84" d="M233.87,109.31l0.47-7.06l0.13,0.04c0.4,0.12,0.81-0.15,0.85-0.57c0.03-0.32-0.17-0.61-0.47-0.7
						l-0.42-0.12l0.05-0.79l0.2,0.06c0.4,0.12,0.81-0.15,0.85-0.57c0.03-0.32-0.17-0.61-0.47-0.7l-0.49-0.14l0.3-4.44
						c-0.02-0.1-0.06-0.19-0.11-0.29c-0.01-0.18-0.04-0.35-0.08-0.53c-0.48-2.12-2.58-3.46-4.7-2.98c-2.12,0.48-3.46,2.58-2.98,4.7
						c0,0.02,0.01,0.03,0.01,0.05c0,0.01,0,0.02,0,0.02l3.27,14.56c0.05,0.23,0.17,0.44,0.32,0.63
						C231.65,111.74,233.76,110.97,233.87,109.31z"/>
				</g>
			</g>
		</g>
		<g id="_x38_._Right_shoe_173_">
			<g>
				<g>
					<g>
						<path class="st84" d="M232.66,98.28c-2.12,0.48-4.23-0.86-4.7-2.98c-0.48-2.12,0.86-4.23,2.98-4.7
							c2.12-0.48,4.23,0.86,4.7,2.98C236.12,95.69,234.78,97.8,232.66,98.28z"/>
					</g>
				</g>
			</g>
			<g>
				<g>
					<g>
						<path class="st99" d="M231.24,109.92l-3.27-14.56c-0.35-1.54,0.62-3.07,2.16-3.41l0,0c1.54-0.34,5.35,0.9,5.69,2.44l-1,15.01
							c-0.11,1.65-2.22,2.43-3.27,1.14C231.41,110.36,231.29,110.15,231.24,109.92z"/>
					</g>
				</g>
			</g>
			<g>
				<g>
					<g>
						<path class="st9" d="M233.71,99.12L233.71,99.12c0.04-0.42,0.45-0.69,0.85-0.57l1.46,0.43c0.3,0.09,0.5,0.38,0.47,0.7l0,0
							c-0.04,0.42-0.45,0.69-0.85,0.57l-1.46-0.43C233.87,99.73,233.67,99.43,233.71,99.12z"/>
					</g>
				</g>
			</g>
			<g>
				<g>
					<g>
						<path class="st9" d="M233.49,101.25L233.49,101.25c0.04-0.41,0.45-0.69,0.85-0.57l1.46,0.43c0.3,0.09,0.5,0.38,0.47,0.7l0,0
							c-0.04,0.42-0.45,0.69-0.85,0.57l-1.46-0.43C233.66,101.86,233.46,101.56,233.49,101.25z"/>
					</g>
				</g>
			</g>
		</g>
	</g>
	<g>
		<g>
			<g>
				<path class="st104" d="M238.36,67.65l-11.18,26.79l8.98,1.08L246.38,71c0.92-2.19-0.12-4.71-2.32-5.63l-0.08-0.03
					C241.79,64.42,239.27,65.46,238.36,67.65z"/>
			</g>
		</g>
	</g>
	<g>
		<g>
			<g>
				<path class="st100" d="M231.35,6.85c4.57-2.6,7.75-0.08,9.12,2.65c-0.71-4.21-4.35-7.42-8.76-7.42c-4.22,0-7.74,2.94-8.66,6.88
					C225.93,9.76,228.51,8.46,231.35,6.85z"/>
			</g>
		</g>
	</g>
</g>
<g id="XMLID_153_">
	<g id="XMLID_167_">
		<g>
			<g>
				<g>
					<path class="st88" d="M521.42,207.12c10.19,0,18.45,7.13,18.45,15.92c0,5.28-2.98,9.96-7.56,12.86l2.6,6.57l-6.37-4.74
						c-2.19,0.79-4.6,1.23-7.12,1.23c-10.19,0-18.45-7.13-18.45-15.92C502.97,214.25,511.23,207.12,521.42,207.12z"/>
				</g>
			</g>
		</g>
	</g>
	<g id="XMLID_154_">
		<g id="XMLID_158_">
			<g>
				<g>
					<g>
						<path class="st105" d="M529.49,225.86c-1.38,0-2.5-1.12-2.5-2.5c0-1.38,1.12-2.5,2.5-2.5c1.38,0,2.5,1.12,2.5,2.5
							C531.99,224.73,530.87,225.86,529.49,225.86z"/>
					</g>
				</g>
			</g>
		</g>
		<g id="XMLID_156_">
			<g>
				<g>
					<g>
						<path class="st105" d="M521.42,225.86c-1.38,0-2.5-1.12-2.5-2.5c0-1.38,1.12-2.5,2.5-2.5c1.38,0,2.5,1.12,2.5,2.5
							C523.92,224.73,522.8,225.86,521.42,225.86z"/>
					</g>
				</g>
			</g>
		</g>
		<g id="XMLID_155_">
			<g>
				<g>
					<g>
						<path class="st105" d="M513.35,225.86c-1.38,0-2.5-1.12-2.5-2.5c0-1.38,1.12-2.5,2.5-2.5c1.38,0,2.5,1.12,2.5,2.5
							C515.85,224.73,514.73,225.86,513.35,225.86z"/>
					</g>
				</g>
			</g>
		</g>
	</g>
</g>
<g>
	<path class="st104" d="M566.11,378.24H46.14c-1.66,0-3.01-1.35-3.01-3.01c0-1.66,1.35-3.01,3.01-3.01h519.98
		c1.66,0,3.01,1.35,3.01,3.01C569.12,376.89,567.78,378.24,566.11,378.24z"/>
</g>
<g>
	<g>
		<path class="st65" d="M326.38,394.28h-80.2c-1.66,0-3.01-1.35-3.01-3.01c0-1.66,1.35-3.01,3.01-3.01h80.2
			c1.66,0,3.01,1.35,3.01,3.01C329.39,392.93,328.04,394.28,326.38,394.28z"/>
	</g>
	<g>
		<path class="st65" d="M222.12,394.28h-20.05c-1.66,0-3.01-1.35-3.01-3.01c0-1.66,1.35-3.01,3.01-3.01h20.05
			c1.66,0,3.01,1.35,3.01,3.01C225.13,392.93,223.78,394.28,222.12,394.28z"/>
	</g>
</g>
<g>
	<g>
		<g>
			<g>
				<path class="st66" d="M277.94,379.95c-1.03,0-2.04-0.47-2.69-1.36l-11.51-15.76c-0.9-1.23-0.85-2.9,0.12-4.07l15.05-18.27
					c1.17-1.42,3.26-1.62,4.68-0.45c1.42,1.17,1.62,3.26,0.45,4.68l-13.4,16.28l9.99,13.68c1.08,1.48,0.76,3.56-0.72,4.65
					C279.3,379.74,278.62,379.95,277.94,379.95z"/>
			</g>
		</g>
	</g>
	<g>
		<g>
			<g>
				<path class="st66" d="M300.03,379.92c-0.68,0-1.37-0.21-1.96-0.64c-1.48-1.08-1.8-3.17-0.72-4.65l10.03-13.71l-13.35-16.23
					c-1.17-1.42-0.96-3.51,0.46-4.68c1.42-1.17,3.52-0.96,4.68,0.45l14.99,18.23c0.97,1.17,1.01,2.85,0.12,4.08l-11.56,15.79
					C302.07,379.45,301.06,379.92,300.03,379.92z"/>
			</g>
		</g>
	</g>
	<g>
		<g>
			<g>
				<path class="st94" d="M280.21,320.11c0,5.3,4.3,9.59,9.6,9.59c5.3,0,9.6-4.3,9.6-9.59c0-5.3-4.3-7.71-9.6-7.71
					C284.51,312.4,280.21,314.81,280.21,320.11z"/>
			</g>
		</g>
	</g>
	<g>
		<g>
			<g>
				<polygon class="st93" points="286.29,331.9 286.31,341.03 286.33,346.99 293.33,346.98 292.98,332.39 292.88,328.24 				"/>
			</g>
		</g>
	</g>
	<g>
		<g>
			<g>
				<path class="st66" d="M278.92,346.2c0.02-2.85,2.48-5.6,5.03-6.93c3.82-1.99,9.7-0.6,11.58,0.51c3.19,1.9,5.09,5.76,4.87,9.73
					l0.22,21.28h-22.6C278.02,370.79,278.87,352.68,278.92,346.2z"/>
			</g>
		</g>
	</g>
	<g>
		<g>
			<g>
				<path class="st93" d="M294.33,339.24c-2.78-1.17-6.71-1.56-9.88-0.2l2.35,2.35c1.49,1.48,3.89,1.48,5.38,0
					C292.9,340.68,293.62,339.96,294.33,339.24z"/>
			</g>
		</g>
	</g>
	<g>
		<g>
			<g>
				<path class="st93" d="M287.99,314.62h3.64c3.22,0,6.23,2.63,5.82,5.82c-0.29,2.32,0,4.07,0,7.52c0,2.89-3.39,8.5-6.28,8.5h-2.73
					c-2.89,0-6.28-5.61-6.28-8.5c0-3.45,0.29-5.19,0-7.52C281.76,317.25,284.77,314.62,287.99,314.62z"/>
			</g>
		</g>
	</g>
	<g>
		<g>
			<g>
				<path class="st95" d="M292.76,331.27c-0.26,1.39-1.48,2.45-2.95,2.45c-1.47,0-2.69-1.05-2.95-2.45H292.76z"/>
			</g>
		</g>
	</g>
	<g>
		<g>
			<g>
				<path class="st102" d="M292.95,391.15h-7.26c-5.22,0-9.13-4.77-8.11-9.89l0.44-10.47h22.6l0.44,10.47
					C302.08,386.37,298.17,391.15,292.95,391.15z"/>
			</g>
		</g>
	</g>
	<g>
		<g>
			<g>
				<path class="st67" d="M256.25,379.47l30.86-2.94l0.88,9.24l-30.86,2.94c-2.53,0.24-4.77-1.61-5.01-4.14l-0.01-0.09
					C251.87,381.95,253.73,379.71,256.25,379.47z"/>
			</g>
		</g>
	</g>
	<g>
		<g>
			<g>
				<path class="st67" d="M317.85,379.47L287,376.53l-0.88,9.24l30.86,2.94c2.53,0.24,4.77-1.61,5.01-4.14l0.01-0.09
					C322.23,381.95,320.38,379.71,317.85,379.47z"/>
			</g>
		</g>
	</g>
	<g>
		<g>
			<g>
				<path class="st9" d="M301.4,385.74h-24.16c-1.24,0-2.25-1.01-2.25-2.25v-16.01c0-1.24,1.01-2.25,2.25-2.25h24.16
					c1.24,0,2.25,1.01,2.25,2.25v16.01C303.65,384.74,302.64,385.74,301.4,385.74z"/>
			</g>
		</g>
	</g>
	<g>
		<g>
			<g>
				<path class="st86" d="M301.4,386.69h-24.16c-1.24,0-2.25-1.01-2.25-2.25v-16.01c0-1.24,1.01-2.25,2.25-2.25h24.16
					c1.24,0,2.25,1.01,2.25,2.25v16.01C303.65,385.69,302.64,386.69,301.4,386.69z"/>
			</g>
		</g>
	</g>
	<g>
		<g>
			<g>
				<path class="st9" d="M292.63,378.15h-6.62c-0.93,0-1.69-0.76-1.69-1.69v-0.04c0-0.93,0.76-1.69,1.69-1.69h6.62
					c0.93,0,1.69,0.76,1.69,1.69v0.04C294.32,377.39,293.57,378.15,292.63,378.15z"/>
			</g>
		</g>
	</g>
	<g>
		<g>
			<g>
				<g>
					<path class="st9" d="M277.16,395.17l8.99-0.54l-0.03,0.17c-0.09,0.52,0.33,0.99,0.86,0.98c0.4-0.01,0.74-0.31,0.81-0.71
						l0.09-0.54l1.01-0.06l-0.04,0.26c-0.09,0.52,0.33,0.99,0.86,0.98c0.4-0.01,0.74-0.31,0.81-0.71l0.1-0.64l5.66-0.34
						c0.12-0.04,0.24-0.11,0.35-0.18c0.22-0.05,0.44-0.11,0.66-0.18c2.6-0.94,3.95-3.81,3.01-6.42c-0.94-2.6-3.81-3.95-6.42-3.01
						c-0.02,0.01-0.04,0.02-0.06,0.02c-0.01,0-0.02,0-0.03,0.01l-17.85,6.46c-0.28,0.1-0.53,0.28-0.75,0.5
						C273.73,392.75,275.05,395.3,277.16,395.17z"/>
				</g>
			</g>
		</g>
		<g id="_x38_._Right_shoe_168_">
			<g>
				<g>
					<g>
						<path class="st84" d="M290.9,391.87c-0.94-2.6,0.4-5.48,3.01-6.42c2.6-0.94,5.48,0.41,6.42,3.01c0.94,2.6-0.4,5.47-3.01,6.42
							C294.71,395.82,291.84,394.47,290.9,391.87z"/>
					</g>
				</g>
			</g>
			<g>
				<g>
					<g>
						<path class="st84" d="M275.97,391.95l17.85-6.46c1.89-0.68,3.97,0.29,4.65,2.18l0,0c0.68,1.89-0.28,6.89-2.17,7.58
							l-19.11,1.15c-2.11,0.13-3.43-2.42-1.97-3.94C275.44,392.22,275.69,392.05,275.97,391.95z"/>
					</g>
				</g>
			</g>
			<g>
				<g>
					<g>
						<path class="st9" d="M290,393.33L290,393.33c0.53-0.02,0.94,0.46,0.86,0.98l-0.32,1.91c-0.07,0.4-0.41,0.7-0.81,0.71l0,0
							c-0.53,0.01-0.94-0.46-0.86-0.98l0.32-1.91C289.26,393.63,289.6,393.34,290,393.33z"/>
					</g>
				</g>
			</g>
			<g>
				<g>
					<g>
						<path class="st9" d="M287.28,393.4L287.28,393.4c0.53-0.01,0.94,0.46,0.86,0.98l-0.32,1.91c-0.07,0.4-0.41,0.69-0.81,0.7l0,0
							c-0.53,0.02-0.94-0.46-0.85-0.98l0.31-1.91C286.54,393.71,286.88,393.41,287.28,393.4z"/>
					</g>
				</g>
			</g>
		</g>
	</g>
	<g>
		<g>
			<g>
				<path class="st93" d="M315.97,381.42l-20.85,5.61c-2.01,0.54-3.19,2.6-2.65,4.61l0.02,0.07c0.54,2.01,2.6,3.19,4.61,2.65
					l20.85-5.61c2-0.54,3.19-2.6,2.65-4.61l-0.02-0.07C320.04,382.06,317.98,380.88,315.97,381.42z"/>
			</g>
		</g>
	</g>
	<g>
		<g>
			<g>
				<g>
					<path class="st9" d="M296.95,395.17l-8.99-0.54l0.03,0.17c0.09,0.52-0.33,0.99-0.86,0.98c-0.4-0.01-0.74-0.31-0.81-0.71
						l-0.09-0.54l-1.01-0.06l0.04,0.26c0.09,0.52-0.33,0.99-0.86,0.98c-0.4-0.01-0.74-0.31-0.81-0.71l-0.1-0.64l-5.66-0.34
						c-0.12-0.04-0.24-0.11-0.35-0.18c-0.22-0.05-0.44-0.11-0.66-0.18c-2.6-0.94-3.95-3.81-3.01-6.42c0.94-2.6,3.81-3.95,6.42-3.01
						c0.02,0.01,0.04,0.02,0.06,0.02c0.01,0,0.02,0,0.03,0.01l17.85,6.46c0.28,0.1,0.53,0.28,0.75,0.5
						C300.37,392.75,299.05,395.3,296.95,395.17z"/>
				</g>
			</g>
		</g>
		<g id="_x38_._Right_shoe_167_">
			<g>
				<g>
					<g>
						<path class="st84" d="M283.21,391.87c0.94-2.6-0.4-5.48-3.01-6.42c-2.6-0.94-5.48,0.41-6.42,3.01
							c-0.94,2.6,0.41,5.47,3.01,6.42C279.39,395.82,282.27,394.47,283.21,391.87z"/>
					</g>
				</g>
			</g>
			<g>
				<g>
					<g>
						<path class="st84" d="M298.14,391.95l-17.85-6.46c-1.89-0.68-3.97,0.29-4.65,2.18l0,0c-0.68,1.89,0.28,6.89,2.17,7.58
							l19.11,1.15c2.11,0.13,3.43-2.42,1.97-3.94C298.67,392.22,298.42,392.05,298.14,391.95z"/>
					</g>
				</g>
			</g>
			<g>
				<g>
					<g>
						<path class="st9" d="M284.1,393.33L284.1,393.33c-0.53-0.02-0.94,0.46-0.85,0.98l0.31,1.91c0.07,0.4,0.41,0.7,0.81,0.71l0,0
							c0.53,0.01,0.94-0.46,0.85-0.98l-0.31-1.91C284.85,393.63,284.51,393.34,284.1,393.33z"/>
					</g>
				</g>
			</g>
			<g>
				<g>
					<g>
						<path class="st9" d="M286.82,393.4L286.82,393.4c-0.53-0.01-0.94,0.46-0.86,0.98l0.32,1.91c0.07,0.4,0.41,0.69,0.81,0.7l0,0
							c0.53,0.02,0.94-0.46,0.85-0.98l-0.31-1.91C287.57,393.71,287.23,393.41,286.82,393.4z"/>
					</g>
				</g>
			</g>
		</g>
	</g>
	<g>
		<g>
			<g>
				<path class="st93" d="M258.13,381.42l20.85,5.61c2,0.54,3.19,2.6,2.65,4.61l-0.02,0.07c-0.54,2.01-2.6,3.19-4.6,2.65
					l-20.85-5.61c-2-0.54-3.19-2.6-2.65-4.61l0.02-0.07C254.07,382.06,256.13,380.88,258.13,381.42z"/>
			</g>
		</g>
	</g>
	<g>
		<g>
			<g>
				<path class="st94" d="M290.39,310.91c8.75,0,8.59,9.38,8.59,9.38c-9.17,1.76-12.69-4.74-12.69-6.01
					C286.29,314.28,287.25,310.91,290.39,310.91z"/>
			</g>
		</g>
	</g>
	<g>
		<g>
			<g>
				<path class="st94" d="M285.84,312.97c-6.99-0.93-5.4,8.24-5.4,8.24c4.61-0.89,7.34-4.64,7.18-5.47L285.84,312.97z"/>
			</g>
		</g>
	</g>
</g>
<g>
	<g>
		<g>
			<path class="st71" d="M169.23,118.95l-32.55-21.24c-0.51-0.35-1.16-0.42-1.73-0.21c-0.58,0.22-1.01,0.71-1.15,1.31l-2.47,10.15
				l-6.24,1.88l2.82,7.18l1.32-0.38l-2.86,6.58l8.76,2.35L169.23,118.95z"/>
		</g>
		<g>
			<path class="st66" d="M169.59,118.63c0.04-0.17-0.03-0.35-0.17-0.45l-34.9-24.02c-0.51-0.35-1.16-0.42-1.73-0.21
				c-0.58,0.22-1.01,0.71-1.15,1.31l-6.5,26.75c-0.14,0.6,0.02,1.23,0.43,1.69c0.41,0.46,1.02,0.69,1.63,0.61l42.03-5.35
				C169.4,118.93,169.55,118.8,169.59,118.63z"/>
		</g>
		<g>
			<path class="st71" d="M158.6,116.19l-31.53-2.1l-1.98-3.24l4.08-5.44l29.54,10.36c0.11,0.03,0.17,0.15,0.15,0.25
				C158.83,116.14,158.72,116.21,158.6,116.19z"/>
		</g>
	</g>
	<g>
		<g>
			<path class="st65" d="M126.82,121.15c0,0-0.28-0.25-0.69-0.63c-0.41-0.35-0.98-0.97-1.52-1.54c-1.05-1.16-1.96-2.42-1.96-2.42
				c-0.32-0.44-0.23-1.06,0.21-1.38c0.44-0.32,1.05-0.22,1.37,0.21c0,0,0.87,1.17,1.84,2.24c0.5,0.51,0.95,1.01,1.4,1.39
				c0.42,0.38,0.7,0.63,0.7,0.63c0.41,0.37,0.44,1,0.07,1.42C127.87,121.49,127.24,121.53,126.82,121.15L126.82,121.15z"/>
		</g>
		<g>
			<path class="st65" d="M117.9,107.43c0,0-0.48-1.4-0.88-2.94c-0.37-1.5-0.62-3.03-0.62-3.03c-0.08-0.51,0.27-0.99,0.78-1.07
				c0.51-0.08,0.99,0.27,1.08,0.78c0,0,0.24,1.44,0.6,2.86c0.36,1.37,0.87,2.81,0.87,2.81c0.17,0.5-0.09,1.04-0.59,1.22
				c-0.5,0.17-1.04-0.09-1.22-0.59l0,0L117.9,107.43z"/>
		</g>
		<g>
			<path class="st65" d="M116.79,91.09c0,0,0.11-0.36,0.28-0.9c0.13-0.52,0.47-1.3,0.76-2.04c0.36-0.7,0.69-1.43,1.02-1.92
				c0.31-0.5,0.52-0.84,0.52-0.84c0.26-0.42,0.81-0.55,1.23-0.29c0.42,0.26,0.54,0.8,0.29,1.22l-0.04,0.07c0,0-0.19,0.3-0.46,0.76
				c-0.3,0.44-0.59,1.1-0.91,1.73c-0.25,0.66-0.53,1.26-0.67,1.83c-0.16,0.54-0.27,0.9-0.27,0.9c-0.14,0.48-0.65,0.76-1.13,0.61
				C116.91,92.09,116.64,91.58,116.79,91.09L116.79,91.09z"/>
		</g>
		<g>
			<path class="st65" d="M127.52,78.92c0,0,0.35-0.14,0.88-0.34c0.5-0.21,1.3-0.45,2.04-0.68c1.49-0.43,3.02-0.69,3.02-0.69
				c0.46-0.08,0.9,0.23,0.98,0.68c0.08,0.46-0.23,0.9-0.68,0.98c0,0-1.44,0.26-2.84,0.67c-0.69,0.23-1.34,0.41-1.88,0.64
				c-0.52,0.21-0.87,0.35-0.87,0.35c-0.44,0.17-0.94-0.04-1.12-0.48S127.07,79.1,127.52,78.92L127.52,78.92z"/>
		</g>
		<g>
			<path class="st65" d="M143.66,76.78c0,0,1.5,0.14,3,0.28c1.52,0.21,3.03,0.42,3.03,0.42c0.44,0.06,0.74,0.47,0.68,0.9
				c-0.06,0.44-0.46,0.74-0.9,0.68l-0.04-0.01c0,0-1.46-0.2-2.93-0.39c-1.5-0.13-3-0.26-3-0.26c-0.45-0.04-0.78-0.43-0.75-0.88
				C142.81,77.08,143.21,76.74,143.66,76.78L143.66,76.78z"/>
		</g>
		<g>
			<path class="st65" d="M159.57,79.76c0,0,1.43,0.45,2.87,0.9c1.44,0.51,2.87,1.01,2.87,1.01c0.39,0.14,0.6,0.57,0.46,0.97
				c-0.14,0.39-0.57,0.6-0.96,0.46l-0.02-0.01c0,0-1.4-0.49-2.8-0.97c-1.44-0.44-2.87-0.89-2.87-0.89
				c-0.41-0.13-0.64-0.56-0.51-0.97C158.72,79.86,159.15,79.63,159.57,79.76L159.57,79.76z"/>
		</g>
		<g>
			<path class="st65" d="M174.58,85.73c0,0,1.33,0.7,2.66,1.4c1.32,0.76,2.64,1.52,2.64,1.52c0.34,0.2,0.46,0.63,0.26,0.97
				c-0.19,0.34-0.63,0.46-0.97,0.26l-0.02-0.01c0,0-1.29-0.73-2.58-1.47c-1.33-0.7-2.67-1.39-2.67-1.39
				c-0.36-0.19-0.5-0.63-0.31-0.98C173.78,85.68,174.22,85.54,174.58,85.73L174.58,85.73z"/>
		</g>
		<g>
			<path class="st65" d="M188.19,94.44c0,0,1.14,0.98,2.29,1.95c1.11,1.05,2.22,2.1,2.22,2.1c0.27,0.25,0.28,0.68,0.03,0.94
				c-0.25,0.27-0.67,0.28-0.94,0.03l-0.03-0.03c0,0-1.08-1.01-2.16-2.02c-1.15-0.97-2.3-1.94-2.3-1.94
				c-0.29-0.24-0.33-0.68-0.08-0.97C187.47,94.23,187.9,94.19,188.19,94.44L188.19,94.44z"/>
		</g>
		<g>
			<path class="st65" d="M199.07,106.42c0,0,0.78,1.26,1.49,2.66c0.69,1.37,1.25,2.8,1.25,2.8c0.13,0.32-0.03,0.68-0.35,0.81
				c-0.32,0.13-0.68-0.04-0.81-0.35c0,0-0.55-1.37-1.22-2.68c-0.66-1.28-1.47-2.58-1.47-2.58c-0.19-0.3-0.1-0.7,0.21-0.88
				c0.3-0.19,0.7-0.1,0.88,0.2l0,0L199.07,106.42z"/>
		</g>
		<g>
			<path class="st65" d="M203.71,121.92c0,0-0.01,0.38-0.04,0.94c0,0.55-0.09,1.33-0.17,2.11c-0.01,0.18-0.04,0.41-0.08,0.59
				c-0.03,0.18-0.06,0.36-0.09,0.53c-0.06,0.35-0.12,0.67-0.16,0.95c-0.1,0.56-0.16,0.93-0.16,0.93c-0.05,0.32-0.35,0.53-0.67,0.47
				c-0.31-0.05-0.53-0.35-0.47-0.67c0,0,0.06-0.37,0.15-0.93c0.05-0.28,0.1-0.6,0.16-0.95c0.03-0.17,0.06-0.35,0.09-0.53
				c0.04-0.19,0.05-0.33,0.07-0.52c0.07-0.72,0.15-1.44,0.15-2.01c0.02-0.56,0.03-0.94,0.03-0.94c0.01-0.33,0.29-0.59,0.62-0.58
				C203.46,121.31,203.72,121.59,203.71,121.92L203.71,121.92z"/>
		</g>
		<g>
			<path class="st65" d="M198.95,137.37c0,0-0.25,0.28-0.62,0.7c-0.33,0.43-0.95,0.97-1.55,1.5c-0.3,0.26-0.64,0.46-0.94,0.68
				c-0.3,0.22-0.59,0.4-0.86,0.52c-0.52,0.27-0.87,0.46-0.87,0.46c-0.26,0.14-0.59,0.04-0.72-0.23c-0.14-0.26-0.04-0.58,0.22-0.72
				l0.06-0.03c0,0,0.32-0.17,0.79-0.42c0.24-0.12,0.51-0.27,0.78-0.48c0.27-0.2,0.58-0.39,0.85-0.62c0.52-0.48,1.05-0.92,1.41-1.38
				c0.37-0.42,0.62-0.71,0.62-0.71c0.2-0.23,0.55-0.25,0.78-0.05C199.13,136.79,199.15,137.14,198.95,137.37L198.95,137.37z"/>
		</g>
		<g>
			<path class="st65" d="M183.92,141.09c0,0-0.34-0.16-0.85-0.41c-0.51-0.21-1.19-0.67-1.85-1.07c-0.62-0.47-1.26-0.9-1.68-1.31
				c-0.43-0.39-0.72-0.65-0.72-0.65c-0.2-0.18-0.22-0.49-0.04-0.69c0.18-0.2,0.49-0.22,0.69-0.04l0.03,0.03c0,0,0.27,0.24,0.68,0.6
				c0.39,0.39,1,0.79,1.58,1.23c0.62,0.36,1.19,0.76,1.73,0.98c0.51,0.24,0.85,0.41,0.85,0.41c0.25,0.12,0.36,0.42,0.24,0.68
				C184.48,141.11,184.18,141.21,183.92,141.09L183.92,141.09z"/>
		</g>
		<g>
			<path class="st65" d="M173.9,128.75c0,0-0.06-0.37-0.16-0.93c-0.12-0.54-0.16-1.34-0.22-2.11c0.01-0.77-0.01-1.55,0.08-2.12
				c0.06-0.58,0.11-0.96,0.11-0.96c0.03-0.25,0.25-0.42,0.5-0.4c0.24,0.03,0.42,0.25,0.4,0.49l-0.01,0.04c0,0-0.04,0.36-0.1,0.91
				c-0.09,0.54-0.05,1.28-0.06,2.01c0.07,0.72,0.09,1.43,0.22,1.99c0.1,0.56,0.16,0.93,0.16,0.93c0.04,0.25-0.12,0.49-0.38,0.54
				C174.18,129.18,173.94,129.01,173.9,128.75L173.9,128.75z"/>
		</g>
		<g>
			<path class="st65" d="M178.81,113.89c0,0,0.29-0.21,0.8-0.52c0.51-0.32,1.22-0.64,1.96-0.91c1.49-0.52,3.07-0.56,3.07-0.56
				c0.22-0.01,0.41,0.16,0.42,0.39c0.01,0.22-0.17,0.41-0.4,0.42c0,0-1.46,0.04-2.83,0.53c-0.67,0.25-1.34,0.56-1.78,0.84
				c-0.46,0.28-0.78,0.51-0.78,0.51c-0.19,0.14-0.45,0.1-0.59-0.09c-0.14-0.19-0.1-0.45,0.09-0.59h0L178.81,113.89z"/>
		</g>
		<g>
			<path class="st65" d="M194.13,115.4c0,0,0.29,0.24,0.73,0.59c0.11,0.09,0.23,0.18,0.35,0.29c0.13,0.11,0.26,0.23,0.39,0.35
				c0.26,0.24,0.54,0.49,0.82,0.74c0.57,0.49,1.09,1.06,1.49,1.46c0.4,0.41,0.67,0.68,0.67,0.68c0.14,0.14,0.14,0.37-0.01,0.51
				c-0.14,0.14-0.37,0.14-0.51,0l-0.02-0.02c0,0-0.26-0.26-0.65-0.66c-0.4-0.39-0.89-0.93-1.47-1.43c-0.28-0.25-0.56-0.5-0.82-0.74
				c-0.13-0.11-0.25-0.22-0.36-0.33c-0.13-0.1-0.25-0.2-0.36-0.28c-0.44-0.35-0.73-0.59-0.73-0.59c-0.16-0.13-0.19-0.37-0.06-0.54
				C193.72,115.29,193.96,115.27,194.13,115.4L194.13,115.4z"/>
		</g>
		<g>
			<path class="st65" d="M204.39,127.78c0,0,0.64,1.36,1.28,2.72c0.53,1.43,1.07,2.86,1.07,2.86c0.06,0.16-0.02,0.35-0.19,0.41
				c-0.17,0.06-0.35-0.02-0.41-0.18l-0.01-0.03c0,0-0.53-1.39-1.05-2.77c-0.65-1.36-1.29-2.72-1.29-2.72
				c-0.08-0.17-0.01-0.37,0.16-0.45C204.11,127.54,204.31,127.61,204.39,127.78L204.39,127.78z"/>
		</g>
		<g>
			<path class="st65" d="M208.41,143.31c0,0,0.02,1.49-0.12,3.02c-0.14,1.52-0.44,3.01-0.44,3.01c-0.03,0.15-0.17,0.25-0.32,0.22
				c-0.15-0.03-0.24-0.18-0.22-0.33c0,0,0.28-1.46,0.41-2.94c0.12-1.47,0.1-2.98,0.1-2.98c0-0.16,0.13-0.29,0.29-0.29
				c0.16,0,0.29,0.13,0.3,0.29v0V143.31z"/>
		</g>
		<g>
			<path class="st65" d="M203.76,158.53c0,0-0.93,1.17-2.07,2.22c-0.59,0.48-1.16,0.99-1.65,1.29c-0.47,0.32-0.79,0.54-0.79,0.54
				c-0.1,0.07-0.25,0.04-0.32-0.06c-0.07-0.11-0.05-0.25,0.06-0.32l0.02-0.01c0,0,0.3-0.21,0.76-0.53c0.47-0.3,1.02-0.8,1.59-1.27
				c0.52-0.53,1.06-1.02,1.41-1.47c0.36-0.43,0.61-0.72,0.61-0.72c0.09-0.1,0.24-0.12,0.35-0.03
				C203.83,158.27,203.84,158.43,203.76,158.53z"/>
		</g>
		<g>
			<path class="st65" d="M189.6,165.28c0,0-1.5,0.02-3.02-0.14c-1.51-0.16-2.99-0.48-2.99-0.48c-0.1-0.02-0.16-0.12-0.14-0.22
				c0.02-0.1,0.12-0.16,0.22-0.14c0,0,1.46,0.31,2.95,0.46c1.47,0.15,2.99,0.13,2.99,0.13c0.11,0,0.2,0.09,0.2,0.2
				c0,0.11-0.09,0.2-0.2,0.2H189.6z"/>
		</g>
		<g>
			<path class="st65" d="M174.14,161.26c0,0-1.33-0.7-2.66-1.4c-1.3-0.77-2.6-1.53-2.6-1.53c-0.07-0.04-0.09-0.13-0.05-0.19
				c0.04-0.07,0.13-0.09,0.2-0.05c0,0,1.3,0.75,2.59,1.51c1.34,0.69,2.67,1.38,2.67,1.38c0.08,0.04,0.11,0.14,0.07,0.21
				C174.31,161.27,174.21,161.3,174.14,161.26L174.14,161.26z"/>
		</g>
		<g>
			<path class="st65" d="M160.69,152.52c0,0-1.16-0.96-2.32-1.92c-1.17-0.95-2.27-1.98-2.27-1.98c-0.04-0.04-0.05-0.1-0.01-0.14
				c0.03-0.04,0.1-0.04,0.14-0.01c0,0,1.11,1.03,2.27,1.96c1.16,0.95,2.33,1.91,2.33,1.91c0.05,0.04,0.05,0.11,0.02,0.16
				C160.81,152.55,160.74,152.56,160.69,152.52L160.69,152.52z"/>
		</g>
		<g>
			<path class="st65" d="M148.92,141.62l-4.23-4.27c-0.02-0.02-0.02-0.06,0-0.08c0.02-0.02,0.06-0.02,0.08,0l4.25,4.25
				c0.03,0.03,0.03,0.07,0,0.1C148.99,141.65,148.95,141.65,148.92,141.62L148.92,141.62z"/>
		</g>
		<g>
			<path class="st65" d="M137.65,130.21l-4.26-4.25c-0.01-0.01-0.01-0.02,0-0.03c0.01-0.01,0.02-0.01,0.03,0l4.28,4.23
				c0.01,0.01,0.01,0.04,0,0.05C137.69,130.22,137.67,130.22,137.65,130.21L137.65,130.21z"/>
		</g>
	</g>
</g>
<g>
	<g>
		<g>
			<path class="st93" d="M104.22,225.42c0.36-0.96,8.82-23.56,8.82-37.4h-5.02c0,12.92-8.41,35.41-8.5,35.63L104.22,225.42z"/>
		</g>
	</g>
	<g>
		<g>
			<path class="st93" d="M126.26,206.84l8.41-14.1c0.35-0.59,0.45-1.3,0.26-1.97c-0.19-0.66-0.64-1.22-1.25-1.54l-13.51-7.11
				l-2.34,4.44l11.16,5.87l-7.05,11.82L126.26,206.84z"/>
		</g>
	</g>
	<g>
		<g>
			<path class="st100" d="M101.89,137.22c0,0,3.31-4,4.81-5.29c2.74-2.36,5.01,0.25,5.01,0.25c13.66-2.1,16.22,17.41,10,22.27
				c-5.04,3.94-9.25,1.22-9.25,1.22s-2.84,2.12-7.2,2.79c-2.7,0.42-5.95-1.35-5.95-1.35s-3.81,2.72-6.73-1.31
				c-2.92-4.03,1.4-8.3,3.69-8.34c0,0-2.75-3.31,1.02-5.51C98.78,141.09,101.89,137.22,101.89,137.22z"/>
		</g>
	</g>
	<g>
		<g>
			<path class="st93" d="M118.78,161.46c0.92-0.47,1.66-1.86,0.56-3.13c-1.08-1.26-2.75-1.95-4.54-2.02l-0.46-0.02
				c-1.59-0.06-3.02,0.63-3.98,1.75C111.12,160.4,116.29,162.41,118.78,161.46z"/>
		</g>
	</g>
	<g>
		<g>
			<path class="st93" d="M116.02,152.7l0.04,2.03l0.08,3.8l-2.92,0.05l-0.09-4.86l-0.04-1.89
				C113.96,152.43,114.97,152.75,116.02,152.7z"/>
		</g>
	</g>
	<g>
		<g>
			<g>
				<path class="st93" d="M116.02,152.7l0.04,2.03c-1.03-0.15-2.29-0.62-2.94-1.38l-0.03-1.51
					C113.96,152.43,114.97,152.75,116.02,152.7z"/>
			</g>
		</g>
	</g>
	<g>
		<g>
			<path class="st93" d="M117.65,152.7L117.65,152.7c-2.47,1.24-5.26,1.16-7.57,0.03c-1.59-0.79-2.95-2.08-3.82-3.79l-1.5-2.98
				c-1.09-2.16-1.16-4.57-0.4-6.68c0.71-1.97,2.15-3.68,4.16-4.7l0,0c1.33-0.67,2.76-0.96,4.15-0.9c2.97,0.12,5.79,1.81,7.23,4.66
				l1.5,2.98c1.38,2.74,1.13,5.87-0.38,8.3C120.23,150.89,119.09,151.97,117.65,152.7z"/>
		</g>
	</g>
	<g>
		<g>
			<path class="st100" d="M108.29,143.92c6.08,0.99,6.75-5.56,6.4-8.26c-0.73-5.64-8.09-4.55-10.67-1.75
				c-1.6,1.74-4.43,6.45-3.21,12.3c1.22,5.85,7.2,9.49,7.2,9.49c6.56-4.81-0.22-9.42-0.22-9.42L108.29,143.92z"/>
		</g>
	</g>
	<g>
		<g>
			<path class="st84" d="M121.47,181.8c0.99,4.33-1.72,8.64-6.06,9.63c-4.33,0.99-8.64-1.72-9.63-6.06
				c-0.99-4.33,1.72-8.64,6.06-9.63C116.17,174.75,120.48,177.47,121.47,181.8z"/>
		</g>
	</g>
	<g>
		<g>
			<path class="st95" d="M116.98,148.08c0.65,0.85,1.83,1.15,2.82,0.65c0.99-0.5,1.45-1.63,1.16-2.65L116.98,148.08z"/>
		</g>
	</g>
	<g>
		<g>
			<path class="st65" d="M127.4,185.88c-10.63,9.21-23.81,13.73-23.81,13.73s-2.25-13.48,2.73-19.33c2.5-2.93,15.35,1.33,15.35,1.33
				L127.4,185.88z"/>
		</g>
	</g>
	<g>
		<g>
			<path class="st70" d="M123.05,162.81c0.55,1.52-0.98,3.05-2.59,3.22c-1.6,0.18-3.05-0.98-3.22-2.58
				c-0.18-1.6,2.21-5.12,3.12-3.78C121.22,160.94,122.58,161.51,123.05,162.81z"/>
		</g>
	</g>
	<g>
		<g>
			<path class="st70" d="M110.36,158.04c-0.69,0.81-1.13,1.85-1.19,3c0,0,0.72,13.21-2.9,19.3c-1.56,2.62,15.45,2.54,15.45,2.54
				l-0.46-19.54c0.09-1.94-0.65-3.72-1.91-5.01C119.27,161.27,113.21,157.73,110.36,158.04z"/>
		</g>
	</g>
	<g>
		<g>
			<path class="st70" d="M112.92,162.86c3.02,0,23.38-0.96,34.71-26.06l-4.58-2.06c-10.56,23.4-29.49,23.12-30.31,23.1l-0.17,5.02
				C112.62,162.85,112.74,162.86,112.92,162.86z"/>
		</g>
	</g>
	<g>
		<g>
			<path class="st93" d="M143.18,130.71c0.9-0.56,1.93-0.74,2.91-0.59l3.45,5.6c-0.31,0.94-0.93,1.78-1.83,2.33
				c-2.03,1.25-4.68,0.62-5.93-1.41C140.52,134.61,141.15,131.96,143.18,130.71z"/>
		</g>
	</g>
	<g>
		<g>
			<g>
				<path class="st94" d="M125.24,208.2c-0.51,1.73-2.34,2.72-4.07,2.21c-1.73-0.51-2.72-2.34-2.21-4.07
					c0.51-1.73,2.34-2.72,4.07-2.2C124.77,204.65,125.76,206.47,125.24,208.2z"/>
			</g>
		</g>
		<g>
			<g>
				<path class="st94" d="M133.12,213.96l-11.89-3.53c-1.26-0.37-1.97-1.69-1.6-2.95l0,0c0.37-1.26,2.82-3.51,4.08-3.14l10.49,6.81
					c1.16,0.75,0.86,2.6-0.5,2.84C133.5,214.02,133.3,214.01,133.12,213.96z"/>
			</g>
		</g>
	</g>
	<g>
		<g>
			<g>
				<path class="st94" d="M103.9,228.21c-1.11,1.43-3.16,1.69-4.59,0.59c-1.43-1.11-1.69-3.16-0.59-4.59
					c1.11-1.43,3.16-1.69,4.59-0.59C104.75,224.72,105.01,226.78,103.9,228.21z"/>
			</g>
		</g>
		<g>
			<g>
				<path class="st94" d="M109.17,236.42l-9.81-7.59c-1.04-0.8-1.23-2.29-0.43-3.33l0,0c0.8-1.04,3.9-2.26,4.94-1.45l7.32,10.14
					c0.81,1.12-0.14,2.74-1.49,2.47C109.51,236.61,109.32,236.54,109.17,236.42z"/>
			</g>
		</g>
	</g>
	<g>
		<g>
			<path class="st65" d="M116.34,181.26c1.29,0,2.67-0.13,4.13-0.44l-0.15-0.7c-6.86,1.48-12.21-1.46-12.26-1.49l-0.35,0.62
				C107.89,179.36,111.34,181.26,116.34,181.26z"/>
		</g>
	</g>
</g>
</svg>
